<svg data-v-fde0c5aa="" xmlns="http://www.w3.org/2000/svg" viewBox="0 0 300 300" class="iconLeftSlogan"><!----><defs data-v-fde0c5aa=""><!----></defs><rect data-v-fde0c5aa="" fill="#E02D1D" x="0" y="0" width="300px" height="300px" class="logo-background-square"></rect><defs data-v-fde0c5aa=""><!----></defs><g data-v-fde0c5aa="" id="6697bb68-db6b-4887-bc81-613a9a0326fb" fill="#FFAD9D" transform="matrix(1.5808177121101012,0,0,1.5808177121101012,93.33439340635316,124.8083419524563)"><path d="M1.54 13.09L1.54 13.09Q1.40 13.09 1.32 13.00L1.32 13.00L1.32 13.00Q1.23 12.91 1.23 12.77L1.23 12.77L1.23 3.63L1.23 3.63Q1.23 3.47 1.32 3.38L1.32 3.38L1.32 3.38Q1.40 3.29 1.54 3.29L1.54 3.29L4.96 3.29L4.96 3.29Q6.55 3.29 7.46 4.04L7.46 4.04L7.46 4.04Q8.36 4.79 8.36 6.22L8.36 6.22L8.36 6.22Q8.36 7.28 7.83 7.97L7.83 7.97L7.83 7.97Q7.29 8.65 6.34 8.92L6.34 8.92L8.50 12.66L8.50 12.66Q8.54 12.74 8.54 12.81L8.54 12.81L8.54 12.81Q8.54 12.92 8.46 13.01L8.46 13.01L8.46 13.01Q8.37 13.09 8.26 13.09L8.26 13.09L7.64 13.09L7.64 13.09Q7.43 13.09 7.32 12.99L7.32 12.99L7.32 12.99Q7.20 12.89 7.10 12.71L7.10 12.71L5.04 9.13L2.55 9.13L2.55 12.77L2.55 12.77Q2.55 12.91 2.45 13.00L2.45 13.00L2.45 13.00Q2.35 13.09 2.21 13.09L2.21 13.09L1.54 13.09ZM2.55 7.98L4.90 7.98L4.90 7.98Q7.01 7.98 7.01 6.20L7.01 6.20L7.01 6.20Q7.01 4.42 4.90 4.42L4.90 4.42L2.55 4.42L2.55 7.98ZM13.16 13.23L13.16 13.23Q11.62 13.23 10.79 12.36L10.79 12.36L10.79 12.36Q9.95 11.49 9.90 10.05L9.90 10.05L9.88 9.45L9.90 8.85L9.90 8.85Q9.95 7.41 10.80 6.54L10.80 6.54L10.80 6.54Q11.65 5.67 13.16 5.67L13.16 5.67L13.16 5.67Q14.67 5.67 15.52 6.54L15.52 6.54L15.52 6.54Q16.37 7.41 16.42 8.85L16.42 8.85L16.42 8.85Q16.45 9.16 16.45 9.45L16.45 9.45L16.45 9.45Q16.45 9.74 16.42 10.05L16.42 10.05L16.42 10.05Q16.37 11.49 15.53 12.36L15.53 12.36L15.53 12.36Q14.70 13.23 13.16 13.23L13.16 13.23ZM13.16 12.18L13.16 12.18Q14.06 12.18 14.58 11.61L14.58 11.61L14.58 11.61Q15.11 11.05 15.15 9.98L15.15 9.98L15.15 9.98Q15.16 9.84 15.16 9.45L15.16 9.45L15.16 9.45Q15.16 9.06 15.15 8.92L15.15 8.92L15.15 8.92Q15.11 7.85 14.58 7.29L14.58 7.29L14.58 7.29Q14.06 6.72 13.16 6.72L13.16 6.72L13.16 6.72Q12.26 6.72 11.74 7.29L11.74 7.29L11.74 7.29Q11.21 7.85 11.17 8.92L11.17 8.92L11.16 9.45L11.17 9.98L11.17 9.98Q11.21 11.05 11.74 11.61L11.74 11.61L11.74 11.61Q12.26 12.18 13.16 12.18L13.16 12.18ZM17.88 13.09L17.88 13.09Q17.75 13.09 17.67 13.01L17.67 13.01L17.67 13.01Q17.58 12.92 17.58 12.80L17.58 12.80L17.58 12.80Q17.58 12.67 17.68 12.53L17.68 12.53L20.12 9.37L17.84 6.36L17.84 6.36Q17.72 6.20 17.72 6.10L17.72 6.10L17.72 6.10Q17.72 5.98 17.82 5.89L17.82 5.89L17.82 5.89Q17.91 5.81 18.02 5.81L18.02 5.81L18.69 5.81L18.69 5.81Q18.90 5.81 19.05 6.03L19.05 6.03L20.94 8.48L22.83 6.03L22.83 6.03Q22.92 5.92 23.00 5.87L23.00 5.87L23.00 5.87Q23.07 5.81 23.20 5.81L23.20 5.81L23.84 5.81L23.84 5.81Q23.95 5.81 24.04 5.89L24.04 5.89L24.04 5.89Q24.12 5.98 24.12 6.09L24.12 6.09L24.12 6.09Q24.12 6.23 24.02 6.36L24.02 6.36L21.71 9.39L24.15 12.53L24.15 12.53Q24.25 12.67 24.25 12.80L24.25 12.80L24.25 12.80Q24.25 12.92 24.16 13.01L24.16 13.01L24.16 13.01Q24.08 13.09 23.95 13.09L23.95 13.09L23.27 13.09L23.27 13.09Q23.06 13.09 22.90 12.88L22.90 12.88L20.90 10.29L18.90 12.88L18.90 12.88Q18.82 12.98 18.74 13.03L18.74 13.03L18.74 13.03Q18.66 13.09 18.54 13.09L18.54 13.09L17.88 13.09ZM26.05 13.09L26.05 13.09Q25.91 13.09 25.82 13.00L25.82 13.00L25.82 13.00Q25.73 12.91 25.73 12.77L25.73 12.77L25.73 6.13L25.73 6.13Q25.73 5.99 25.82 5.90L25.82 5.90L25.82 5.90Q25.91 5.81 26.05 5.81L26.05 5.81L26.64 5.81L26.64 5.81Q26.78 5.81 26.87 5.90L26.87 5.90L26.87 5.90Q26.95 5.99 26.95 6.13L26.95 6.13L26.95 6.61L26.95 6.61Q27.71 5.67 28.99 5.67L28.99 5.67L28.99 5.67Q30.53 5.67 31.18 6.96L31.18 6.96L31.18 6.96Q31.51 6.37 32.14 6.02L32.14 6.02L32.14 6.02Q32.76 5.67 33.53 5.67L33.53 5.67L33.53 5.67Q34.68 5.67 35.41 6.45L35.41 6.45L35.41 6.45Q36.13 7.24 36.13 8.72L36.13 8.72L36.13 12.77L36.13 12.77Q36.13 12.91 36.04 13.00L36.04 13.00L36.04 13.00Q35.95 13.09 35.81 13.09L35.81 13.09L35.21 13.09L35.21 13.09Q35.07 13.09 34.98 13.00L34.98 13.00L34.98 13.00Q34.89 12.91 34.89 12.77L34.89 12.77L34.89 8.85L34.89 8.85Q34.89 7.73 34.43 7.25L34.43 7.25L34.43 7.25Q33.96 6.76 33.21 6.76L33.21 6.76L33.21 6.76Q32.54 6.76 32.05 7.26L32.05 7.26L32.05 7.26Q31.57 7.76 31.57 8.85L31.57 8.85L31.57 12.77L31.57 12.77Q31.57 12.91 31.48 13.00L31.48 13.00L31.48 13.00Q31.39 13.09 31.25 13.09L31.25 13.09L30.63 13.09L30.63 13.09Q30.49 13.09 30.40 13.00L30.40 13.00L30.40 13.00Q30.31 12.91 30.31 12.77L30.31 12.77L30.31 8.85L30.31 8.85Q30.31 7.74 29.83 7.25L29.83 7.25L29.83 7.25Q29.34 6.76 28.63 6.76L28.63 6.76L28.63 6.76Q27.96 6.76 27.48 7.25L27.48 7.25L27.48 7.25Q26.99 7.74 26.99 8.83L26.99 8.83L26.99 12.77L26.99 12.77Q26.99 12.91 26.90 13.00L26.90 13.00L26.90 13.00Q26.81 13.09 26.67 13.09L26.67 13.09L26.05 13.09ZM40.18 13.23L40.18 13.23Q39.49 13.23 38.91 12.95L38.91 12.95L38.91 12.95Q38.33 12.67 37.99 12.19L37.99 12.19L37.99 12.19Q37.65 11.70 37.65 11.12L37.65 11.12L37.65 11.12Q37.65 10.19 38.40 9.60L38.40 9.60L38.40 9.60Q39.16 9.02 40.46 8.82L40.46 8.82L42.56 8.53L42.56 8.12L42.56 8.12Q42.56 6.68 40.89 6.68L40.89 6.68L40.89 6.68Q40.25 6.68 39.86 6.94L39.86 6.94L39.86 6.94Q39.47 7.20 39.28 7.55L39.28 7.55L39.28 7.55Q39.23 7.69 39.17 7.73L39.17 7.73L39.17 7.73Q39.10 7.78 38.99 7.78L38.99 7.78L38.44 7.78L38.44 7.78Q38.32 7.78 38.23 7.69L38.23 7.69L38.23 7.69Q38.14 7.60 38.14 7.48L38.14 7.48L38.14 7.48Q38.14 7.15 38.44 6.73L38.44 6.73L38.44 6.73Q38.74 6.30 39.37 5.98L39.37 5.98L39.37 5.98Q40.00 5.67 40.91 5.67L40.91 5.67L40.91 5.67Q42.48 5.67 43.16 6.40L43.16 6.40L43.16 6.40Q43.83 7.13 43.83 8.22L43.83 8.22L43.83 12.77L43.83 12.77Q43.83 12.91 43.74 13.00L43.74 13.00L43.74 13.00Q43.65 13.09 43.51 13.09L43.51 13.09L42.90 13.09L42.90 13.09Q42.76 13.09 42.67 13.00L42.67 13.00L42.67 13.00Q42.59 12.91 42.59 12.77L42.59 12.77L42.59 12.15L42.59 12.15Q42.28 12.61 41.69 12.92L41.69 12.92L41.69 12.92Q41.10 13.23 40.18 13.23L40.18 13.23ZM40.46 12.21L40.46 12.21Q41.38 12.21 41.97 11.61L41.97 11.61L41.97 11.61Q42.56 11.00 42.56 9.86L42.56 9.86L42.56 9.46L40.92 9.70L40.92 9.70Q39.91 9.84 39.40 10.18L39.40 10.18L39.40 10.18Q38.88 10.51 38.88 11.02L38.88 11.02L38.88 11.02Q38.88 11.59 39.35 11.90L39.35 11.90L39.35 11.90Q39.82 12.21 40.46 12.21L40.46 12.21ZM46.19 13.09L46.19 13.09Q46.05 13.09 45.96 13.00L45.96 13.00L45.96 13.00Q45.86 12.91 45.86 12.77L45.86 12.77L45.86 6.13L45.86 6.13Q45.86 5.99 45.96 5.90L45.96 5.90L45.96 5.90Q46.05 5.81 46.19 5.81L46.19 5.81L46.79 5.81L46.79 5.81Q46.94 5.81 47.03 5.89L47.03 5.89L47.03 5.89Q47.11 5.98 47.11 6.13L47.11 6.13L47.11 6.75L47.11 6.75Q47.53 6.23 48.08 5.95L48.08 5.95L48.08 5.95Q48.64 5.67 49.46 5.67L49.46 5.67L49.46 5.67Q50.81 5.67 51.55 6.53L51.55 6.53L51.55 6.53Q52.29 7.39 52.29 8.81L52.29 8.81L52.29 12.77L52.29 12.77Q52.29 12.91 52.20 13.00L52.20 13.00L52.20 13.00Q52.11 13.09 51.97 13.09L51.97 13.09L51.32 13.09L51.32 13.09Q51.18 13.09 51.09 13.00L51.09 13.00L51.09 13.00Q51.00 12.91 51.00 12.77L51.00 12.77L51.00 8.89L51.00 8.89Q51.00 7.88 50.51 7.32L50.51 7.32L50.51 7.32Q50.02 6.76 49.11 6.76L49.11 6.76L49.11 6.76Q48.22 6.76 47.68 7.33L47.68 7.33L47.68 7.33Q47.15 7.90 47.15 8.89L47.15 8.89L47.15 12.77L47.15 12.77Q47.15 12.91 47.06 13.00L47.06 13.00L47.06 13.00Q46.97 13.09 46.83 13.09L46.83 13.09L46.19 13.09ZM61.49 13.23L61.49 13.23Q59.67 13.23 58.66 12.22L58.66 12.22L58.66 12.22Q57.65 11.21 57.58 9.49L57.58 9.49L57.58 9.49Q57.57 9.07 57.57 8.18L57.57 8.18L57.57 8.18Q57.57 7.27 57.58 6.86L57.58 6.86L57.58 6.86Q57.64 5.15 58.65 4.15L58.65 4.15L58.65 4.15Q59.67 3.15 61.49 3.15L61.49 3.15L61.49 3.15Q62.72 3.15 63.57 3.60L63.57 3.60L63.57 3.60Q64.43 4.05 64.86 4.67L64.86 4.67L64.86 4.67Q65.30 5.29 65.32 5.82L65.32 5.82L65.32 5.85L65.32 5.85Q65.32 5.96 65.23 6.04L65.23 6.04L65.23 6.04Q65.14 6.12 65.03 6.12L65.03 6.12L64.25 6.12L64.25 6.12Q64.12 6.12 64.06 6.06L64.06 6.06L64.06 6.06Q63.99 6.01 63.94 5.85L63.94 5.85L63.94 5.85Q63.71 5.19 63.11 4.75L63.11 4.75L63.11 4.75Q62.51 4.30 61.49 4.30L61.49 4.30L61.49 4.30Q60.31 4.30 59.64 4.94L59.64 4.94L59.64 4.94Q58.97 5.59 58.93 6.93L58.93 6.93L58.93 6.93Q58.91 7.34 58.91 8.18L58.91 8.18L58.91 8.18Q58.91 9.00 58.93 9.42L58.93 9.42L58.93 9.42Q58.97 10.78 59.64 11.42L59.64 11.42L59.64 11.42Q60.31 12.07 61.49 12.07L61.49 12.07L61.49 12.07Q62.68 12.07 63.39 11.42L63.39 11.42L63.39 11.42Q64.11 10.77 64.11 9.46L64.11 9.46L64.11 8.86L61.96 8.86L61.96 8.86Q61.82 8.86 61.73 8.76L61.73 8.76L61.73 8.76Q61.64 8.67 61.64 8.53L61.64 8.53L61.64 8.11L61.64 8.11Q61.64 7.97 61.73 7.87L61.73 7.87L61.73 7.87Q61.82 7.77 61.96 7.77L61.96 7.77L65.10 7.77L65.10 7.77Q65.25 7.77 65.35 7.86L65.35 7.86L65.35 7.86Q65.44 7.95 65.44 8.11L65.44 8.11L65.44 9.44L65.44 9.44Q65.44 10.57 64.97 11.43L64.97 11.43L64.97 11.43Q64.50 12.29 63.60 12.76L63.60 12.76L63.60 12.76Q62.71 13.23 61.49 13.23L61.49 13.23ZM69.29 13.23L69.29 13.23Q68.60 13.23 68.02 12.95L68.02 12.95L68.02 12.95Q67.44 12.67 67.10 12.19L67.10 12.19L67.10 12.19Q66.75 11.70 66.75 11.12L66.75 11.12L66.75 11.12Q66.75 10.19 67.51 9.60L67.51 9.60L67.51 9.60Q68.26 9.02 69.57 8.82L69.57 8.82L71.67 8.53L71.67 8.12L71.67 8.12Q71.67 6.68 70.00 6.68L70.00 6.68L70.00 6.68Q69.36 6.68 68.96 6.94L68.96 6.94L68.96 6.94Q68.57 7.20 68.39 7.55L68.39 7.55L68.39 7.55Q68.33 7.69 68.27 7.73L68.27 7.73L68.27 7.73Q68.21 7.78 68.10 7.78L68.10 7.78L67.55 7.78L67.55 7.78Q67.42 7.78 67.33 7.69L67.33 7.69L67.33 7.69Q67.24 7.60 67.24 7.48L67.24 7.48L67.24 7.48Q67.24 7.15 67.54 6.73L67.54 6.73L67.54 6.73Q67.84 6.30 68.47 5.98L68.47 5.98L68.47 5.98Q69.10 5.67 70.01 5.67L70.01 5.67L70.01 5.67Q71.58 5.67 72.26 6.40L72.26 6.40L72.26 6.40Q72.94 7.13 72.94 8.22L72.94 8.22L72.94 12.77L72.94 12.77Q72.94 12.91 72.85 13.00L72.85 13.00L72.85 13.00Q72.76 13.09 72.62 13.09L72.62 13.09L72.00 13.09L72.00 13.09Q71.86 13.09 71.78 13.00L71.78 13.00L71.78 13.00Q71.69 12.91 71.69 12.77L71.69 12.77L71.69 12.15L71.69 12.15Q71.39 12.61 70.80 12.92L70.80 12.92L70.80 12.92Q70.21 13.23 69.29 13.23L69.29 13.23ZM69.57 12.21L69.57 12.21Q70.49 12.21 71.08 11.61L71.08 11.61L71.08 11.61Q71.67 11.00 71.67 9.86L71.67 9.86L71.67 9.46L70.03 9.70L70.03 9.70Q69.02 9.84 68.50 10.18L68.50 10.18L68.50 10.18Q67.98 10.51 67.98 11.02L67.98 11.02L67.98 11.02Q67.98 11.59 68.45 11.90L68.45 11.90L68.45 11.90Q68.92 12.21 69.57 12.21L69.57 12.21ZM75.29 13.09L75.29 13.09Q75.15 13.09 75.06 13.00L75.06 13.00L75.06 13.00Q74.97 12.91 74.97 12.77L74.97 12.77L74.97 6.13L74.97 6.13Q74.97 5.99 75.06 5.90L75.06 5.90L75.06 5.90Q75.15 5.81 75.29 5.81L75.29 5.81L75.88 5.81L75.88 5.81Q76.02 5.81 76.10 5.90L76.10 5.90L76.10 5.90Q76.19 5.99 76.19 6.13L76.19 6.13L76.19 6.61L76.19 6.61Q76.94 5.67 78.23 5.67L78.23 5.67L78.23 5.67Q79.77 5.67 80.42 6.96L80.42 6.96L80.42 6.96Q80.75 6.37 81.38 6.02L81.38 6.02L81.38 6.02Q82.00 5.67 82.77 5.67L82.77 5.67L82.77 5.67Q83.92 5.67 84.64 6.45L84.64 6.45L84.64 6.45Q85.37 7.24 85.37 8.72L85.37 8.72L85.37 12.77L85.37 12.77Q85.37 12.91 85.28 13.00L85.28 13.00L85.28 13.00Q85.19 13.09 85.05 13.09L85.05 13.09L84.45 13.09L84.45 13.09Q84.31 13.09 84.22 13.00L84.22 13.00L84.22 13.00Q84.13 12.91 84.13 12.77L84.13 12.77L84.13 8.85L84.13 8.85Q84.13 7.73 83.66 7.25L83.66 7.25L83.66 7.25Q83.20 6.76 82.45 6.76L82.45 6.76L82.45 6.76Q81.77 6.76 81.29 7.26L81.29 7.26L81.29 7.26Q80.81 7.76 80.81 8.85L80.81 8.85L80.81 12.77L80.81 12.77Q80.81 12.91 80.72 13.00L80.72 13.00L80.72 13.00Q80.63 13.09 80.49 13.09L80.49 13.09L79.87 13.09L79.87 13.09Q79.73 13.09 79.64 13.00L79.64 13.00L79.64 13.00Q79.55 12.91 79.55 12.77L79.55 12.77L79.55 8.85L79.55 8.85Q79.55 7.74 79.07 7.25L79.07 7.25L79.07 7.25Q78.58 6.76 77.87 6.76L77.87 6.76L77.87 6.76Q77.20 6.76 76.71 7.25L76.71 7.25L76.71 7.25Q76.23 7.74 76.23 8.83L76.23 8.83L76.23 12.77L76.23 12.77Q76.23 12.91 76.14 13.00L76.14 13.00L76.14 13.00Q76.05 13.09 75.91 13.09L75.91 13.09L75.29 13.09ZM87.61 4.44L87.61 4.44Q87.47 4.44 87.38 4.35L87.38 4.35L87.38 4.35Q87.29 4.26 87.29 4.12L87.29 4.12L87.29 3.39L87.29 3.39Q87.29 3.25 87.38 3.15L87.38 3.15L87.38 3.15Q87.47 3.05 87.61 3.05L87.61 3.05L88.44 3.05L88.44 3.05Q88.58 3.05 88.68 3.15L88.68 3.15L88.68 3.15Q88.77 3.25 88.77 3.39L88.77 3.39L88.77 4.12L88.77 4.12Q88.77 4.26 88.68 4.35L88.68 4.35L88.68 4.35Q88.58 4.44 88.44 4.44L88.44 4.44L87.61 4.44ZM87.72 13.09L87.72 13.09Q87.58 13.09 87.49 13.00L87.49 13.00L87.49 13.00Q87.40 12.91 87.40 12.77L87.40 12.77L87.40 6.13L87.40 6.13Q87.40 5.99 87.49 5.90L87.49 5.90L87.49 5.90Q87.58 5.81 87.72 5.81L87.72 5.81L88.34 5.81L88.34 5.81Q88.48 5.81 88.57 5.90L88.57 5.90L88.57 5.90Q88.66 5.99 88.66 6.13L88.66 6.13L88.66 12.77L88.66 12.77Q88.66 12.91 88.57 13.00L88.57 13.00L88.57 13.00Q88.48 13.09 88.34 13.09L88.34 13.09L87.72 13.09ZM91.08 13.09L91.08 13.09Q90.94 13.09 90.85 13.00L90.85 13.00L90.85 13.00Q90.76 12.91 90.76 12.77L90.76 12.77L90.76 6.13L90.76 6.13Q90.76 5.99 90.85 5.90L90.85 5.90L90.85 5.90Q90.94 5.81 91.08 5.81L91.08 5.81L91.69 5.81L91.69 5.81Q91.84 5.81 91.92 5.89L91.92 5.89L91.92 5.89Q92.01 5.98 92.01 6.13L92.01 6.13L92.01 6.75L92.01 6.75Q92.43 6.23 92.98 5.95L92.98 5.95L92.98 5.95Q93.53 5.67 94.36 5.67L94.36 5.67L94.36 5.67Q95.70 5.67 96.45 6.53L96.45 6.53L96.45 6.53Q97.19 7.39 97.19 8.81L97.19 8.81L97.19 12.77L97.19 12.77Q97.19 12.91 97.10 13.00L97.10 13.00L97.10 13.00Q97.01 13.09 96.87 13.09L96.87 13.09L96.22 13.09L96.22 13.09Q96.08 13.09 95.99 13.00L95.99 13.00L95.99 13.00Q95.90 12.91 95.90 12.77L95.90 12.77L95.90 8.89L95.90 8.89Q95.90 7.88 95.41 7.32L95.41 7.32L95.41 7.32Q94.92 6.76 94.01 6.76L94.01 6.76L94.01 6.76Q93.11 6.76 92.58 7.33L92.58 7.33L92.58 7.33Q92.05 7.90 92.05 8.89L92.05 8.89L92.05 12.77L92.05 12.77Q92.05 12.91 91.96 13.00L91.96 13.00L91.96 13.00Q91.87 13.09 91.73 13.09L91.73 13.09L91.08 13.09ZM102.17 16.17L102.17 16.17Q101.01 16.17 100.31 15.78L100.31 15.78L100.31 15.78Q99.61 15.39 99.32 14.88L99.32 14.88L99.32 14.88Q99.04 14.38 99.04 14.01L99.04 14.01L99.04 14.01Q99.04 13.89 99.13 13.80L99.13 13.80L99.13 13.80Q99.23 13.71 99.36 13.71L99.36 13.71L99.97 13.71L99.97 13.71Q100.10 13.71 100.18 13.77L100.18 13.77L100.18 13.77Q100.27 13.83 100.32 14L100.32 14L100.32 14Q100.72 15.12 102.10 15.12L102.10 15.12L102.10 15.12Q103.15 15.12 103.66 14.67L103.66 14.67L103.66 14.67Q104.16 14.22 104.16 13.09L104.16 13.09L104.16 12.12L104.16 12.12Q103.35 13.16 101.89 13.16L101.89 13.16L101.89 13.16Q100.41 13.16 99.67 12.21L99.67 12.21L99.67 12.21Q98.94 11.26 98.90 9.80L98.90 9.80L98.88 9.41L98.90 9.03L98.90 9.03Q98.94 7.59 99.67 6.63L99.67 6.63L99.67 6.63Q100.41 5.67 101.89 5.67L101.89 5.67L101.89 5.67Q103.36 5.67 104.19 6.75L104.19 6.75L104.19 6.15L104.19 6.15Q104.19 6.01 104.28 5.91L104.28 5.91L104.28 5.91Q104.37 5.81 104.51 5.81L104.51 5.81L105.11 5.81L105.11 5.81Q105.25 5.81 105.34 5.91L105.34 5.91L105.34 5.91Q105.43 6.01 105.43 6.15L105.43 6.15L105.43 12.94L105.43 12.94Q105.43 16.17 102.17 16.17L102.17 16.17ZM102.14 12.07L102.14 12.07Q103.12 12.07 103.62 11.43L103.62 11.43L103.62 11.43Q104.12 10.79 104.16 9.90L104.16 9.90L104.16 9.90Q104.17 9.77 104.17 9.41L104.17 9.41L104.17 9.41Q104.17 9.06 104.16 8.93L104.16 8.93L104.16 8.93Q104.12 8.04 103.62 7.40L103.62 7.40L103.62 7.40Q103.12 6.76 102.14 6.76L102.14 6.76L102.14 6.76Q101.14 6.76 100.68 7.40L100.68 7.40L100.68 7.40Q100.23 8.04 100.18 9.04L100.18 9.04L100.17 9.41L100.18 9.79L100.18 9.79Q100.23 10.79 100.68 11.43L100.68 11.43L100.68 11.43Q101.14 12.07 102.14 12.07L102.14 12.07Z"></path></g><defs data-v-fde0c5aa=""><!----></defs><g data-v-fde0c5aa="" id="695ced26-23b5-49bf-af02-8d74daa158fe" stroke="none" fill="#FFAD9D" transform="matrix(1.3212124757000088,0,0,1.3212124757000088,40,128.86060038879987)"><path d="M16 1c8.271 0 15 6.729 15 15s-6.729 15-15 15S1 24.271 1 16 7.729 1 16 1m0-1C7.163 0 0 7.163 0 16s7.163 16 16 16 16-7.163 16-16S24.837 0 16 0z"></path><path d="M16 7.045L24.955 16 16 24.955 7.045 16 16 7.045m0-1.414L5.631 16 16 26.369 26.369 16 16 5.631z"></path></g><defs data-v-fde0c5aa=""><!----></defs><g data-v-fde0c5aa="" id="c56b96a2-c1fc-45ac-b9d5-e677c6a7ab00" fill="#FFAD9D" transform="matrix(0.5499322319931351,0,0,0.5499322319931351,95.12481819678663,158.55538776163263)"><path d="M0.28 3.65L0.28 3.65L0.28 3.65Q0.28 3.46 0.67 3.46L0.67 3.46L0.67 3.46Q0.73 3.46 0.85 3.47L0.85 3.47L0.85 3.47Q0.98 3.49 1.05 3.49L1.05 3.49L1.05 3.49Q1.09 3.49 2.37 3.52L2.37 3.52L2.37 3.52Q3.64 3.56 4.47 3.56L4.47 3.56L4.47 3.56Q4.76 3.56 5.92 3.53L5.92 3.53L5.92 3.53Q7.07 3.50 7.27 3.50L7.27 3.50L7.27 3.50Q7.53 3.50 7.53 3.82L7.53 3.82L7.53 3.82Q7.53 3.91 7.45 4.38L7.45 4.38L7.45 4.38Q7.36 4.84 7.36 5.25L7.36 5.25L7.36 5.25Q7.36 5.38 7.29 5.47L7.29 5.47L7.29 5.47Q7.22 5.56 7.14 5.56L7.14 5.56L7.14 5.56Q6.93 5.56 6.93 5.26L6.93 5.26L6.93 5.26Q6.93 4.89 6.69 4.58L6.69 4.58L6.69 4.58Q6.45 4.27 6.10 4.26L6.10 4.26L6.10 4.26Q4.84 4.16 4.17 4.16L4.17 4.16L3.81 4.16L3.81 4.16Q3.08 4.16 2.96 4.26L2.96 4.26L2.96 4.26Q2.84 4.37 2.81 5.01L2.81 5.01L2.81 5.01Q2.76 6.02 2.76 7.35L2.76 7.35L2.76 7.35Q2.76 8.05 3.02 8.06L3.02 8.06L3.37 8.06L3.96 8.06L4.40 8.06L4.40 8.06Q5.24 8.06 5.52 8.01L5.52 8.01L5.52 8.01Q5.80 7.95 6.02 7.80L6.02 7.80L6.02 7.80Q6.29 7.62 6.34 7.28L6.34 7.28L6.34 7.28Q6.38 7.04 6.54 7.04L6.54 7.04L6.54 7.04Q6.66 7.04 6.69 7.08L6.69 7.08L6.69 7.08Q6.72 7.13 6.72 7.27L6.72 7.27L6.72 7.27Q6.72 7.36 6.66 7.91L6.66 7.91L6.66 7.91Q6.61 8.46 6.61 8.74L6.61 8.74L6.61 8.74Q6.61 9.00 6.63 9.24L6.63 9.24L6.63 9.24Q6.65 9.48 6.65 9.59L6.65 9.59L6.65 9.59Q6.65 9.94 6.55 9.94L6.55 9.94L6.55 9.94Q6.34 9.94 6.24 9.60L6.24 9.60L6.24 9.60Q6.05 9.02 5.89 8.92L5.89 8.92L5.89 8.92Q5.60 8.72 4.55 8.72L4.55 8.72L4.55 8.72Q4.13 8.72 3.87 8.72L3.87 8.72L3.87 8.72Q3.61 8.72 3.54 8.71L3.54 8.71L3.54 8.71Q3.46 8.71 3.41 8.71L3.41 8.71L3.41 8.71Q3.36 8.71 3.32 8.71L3.32 8.71L3.32 8.71Q2.74 8.71 2.74 8.97L2.74 8.97L2.74 8.97Q2.74 9.38 2.73 9.99L2.73 9.99L2.73 9.99Q2.72 10.60 2.72 10.99L2.72 10.99L2.72 11.55L2.72 11.55Q2.72 12.56 3.05 12.66L3.05 12.66L3.05 12.66Q3.40 12.77 3.65 12.77L3.65 12.77L3.65 12.77Q4.70 12.77 5.50 12.67L5.50 12.67L5.50 12.67Q6.29 12.57 6.69 12.42L6.69 12.42L6.69 12.42Q7.08 12.28 7.35 12.10L7.35 12.10L7.35 12.10Q7.62 11.93 7.69 11.78L7.69 11.78L7.69 11.78Q7.77 11.63 7.85 11.54L7.85 11.54L7.85 11.54Q7.92 11.44 8.01 11.44L8.01 11.44L8.01 11.44Q8.18 11.44 8.18 11.68L8.18 11.68L8.18 11.68Q8.18 12.28 7.57 12.89L7.57 12.89L7.57 12.89Q6.97 13.51 6.52 13.51L6.52 13.51L6.52 13.51Q5.52 13.51 4.25 13.44L4.25 13.44L4.25 13.44Q2.98 13.37 2.67 13.37L2.67 13.37L2.67 13.37Q2.28 13.37 1.69 13.43L1.69 13.43L1.69 13.43Q1.11 13.50 0.77 13.50L0.77 13.50L0.77 13.50Q0.48 13.50 0.48 13.36L0.48 13.36L0.48 13.36Q0.48 13.23 0.48 13.19L0.48 13.19L0.48 13.19Q0.48 13.15 0.52 13.12L0.52 13.12L0.52 13.12Q0.56 13.09 0.61 13.08L0.61 13.08L0.61 13.08Q0.66 13.08 0.79 13.03L0.79 13.03L0.79 13.03Q0.92 12.99 1.08 12.92L1.08 12.92L1.08 12.92Q1.41 12.75 1.52 12.26L1.52 12.26L1.52 12.26Q1.62 11.77 1.62 10.21L1.62 10.21L1.62 8.47L1.62 8.47Q1.62 8.09 1.65 7.29L1.65 7.29L1.65 7.29Q1.67 6.50 1.67 6.05L1.67 6.05L1.67 6.05Q1.67 5.67 1.64 4.77L1.64 4.77L1.64 4.77Q1.62 4.37 1.29 4.14L1.29 4.14L1.29 4.14Q0.95 3.92 0.50 3.91L0.50 3.91L0.50 3.91Q0.28 3.91 0.28 3.65ZM15.74 3.72L15.74 3.72L15.74 3.72Q15.74 3.50 16.06 3.50L16.06 3.50L16.06 3.50Q16.10 3.50 16.21 3.49L16.21 3.49L16.21 3.49Q16.32 3.49 16.58 3.49L16.58 3.49L16.58 3.49Q16.65 3.49 16.96 3.51L16.96 3.51L16.96 3.51Q17.28 3.53 17.42 3.53L17.42 3.53L17.42 3.53Q17.72 3.53 18.61 3.51L18.61 3.51L18.61 3.51Q19.49 3.49 19.73 3.49L19.73 3.49L19.73 3.49Q21.04 3.49 21.99 4.15L21.99 4.15L21.99 4.15Q22.95 4.82 22.95 6.06L22.95 6.06L22.95 6.06Q22.95 6.75 22.69 7.29L22.69 7.29L22.69 7.29Q22.44 7.83 22.09 8.13L22.09 8.13L22.09 8.13Q21.73 8.44 21.29 8.64L21.29 8.64L21.29 8.64Q20.85 8.85 20.50 8.91L20.50 8.91L20.50 8.91Q20.16 8.97 19.89 8.97L19.89 8.97L19.89 8.97Q19.45 8.97 18.98 8.87L18.98 8.87L18.98 8.87Q18.52 8.76 18.52 8.65L18.52 8.65L18.52 8.65Q18.52 8.44 18.70 8.44L18.70 8.44L18.70 8.44Q18.77 8.44 18.99 8.50L18.99 8.50L18.99 8.50Q19.21 8.55 19.42 8.55L19.42 8.55L19.42 8.55Q19.74 8.55 20.10 8.46L20.10 8.46L20.10 8.46Q20.47 8.37 20.86 8.17L20.86 8.17L20.86 8.17Q21.25 7.97 21.50 7.55L21.50 7.55L21.50 7.55Q21.76 7.14 21.76 6.59L21.76 6.59L21.76 6.59Q21.76 5.66 21 4.85L21 4.85L21 4.85Q20.24 4.05 18.91 4.05L18.91 4.05L18.91 4.05Q18.48 4.05 18.33 4.30L18.33 4.30L18.33 4.30Q18.17 4.56 18.17 5.47L18.17 5.47L18.17 5.47Q18.17 8.39 18.16 8.80L18.16 8.80L18.16 8.80Q18.14 9.21 18.14 11.26L18.14 11.26L18.14 11.26Q18.14 12.49 18.72 12.87L18.72 12.87L18.72 12.87Q18.87 12.96 19.10 12.99L19.10 12.99L19.10 12.99Q19.33 13.02 19.49 13.01L19.49 13.01L19.49 13.01Q19.64 13.01 19.76 13.07L19.76 13.07L19.76 13.07Q19.88 13.13 19.88 13.30L19.88 13.30L19.88 13.30Q19.88 13.54 19.56 13.54L19.56 13.54L19.56 13.54Q19.24 13.54 18.42 13.50L18.42 13.50L18.42 13.50Q17.61 13.47 17.56 13.47L17.56 13.47L17.56 13.47Q17.42 13.47 17.00 13.50L17.00 13.50L17.00 13.50Q16.59 13.52 16.25 13.52L16.25 13.52L16.25 13.52Q15.82 13.52 15.82 13.37L15.82 13.37L15.82 13.37Q15.82 13.29 15.84 13.23L15.84 13.23L15.84 13.23Q15.86 13.17 15.88 13.14L15.88 13.14L15.88 13.14Q15.90 13.10 15.97 13.08L15.97 13.08L15.97 13.08Q16.04 13.05 16.07 13.03L16.07 13.03L16.07 13.03Q16.10 13.02 16.20 13.00L16.20 13.00L16.20 13.00Q16.31 12.98 16.35 12.96L16.35 12.96L16.35 12.96Q16.38 12.95 16.44 12.94L16.44 12.94L16.44 12.94Q16.49 12.94 16.51 12.93L16.51 12.93L16.51 12.93Q16.53 12.92 16.58 12.89L16.58 12.89L16.58 12.89Q16.63 12.85 16.66 12.79L16.66 12.79L16.66 12.79Q16.69 12.73 16.74 12.62L16.74 12.62L16.74 12.62Q16.79 12.52 16.84 12.35L16.84 12.35L16.84 12.35Q16.94 12.08 17.00 10.25L17.00 10.25L17.00 10.25Q17.05 8.41 17.05 7.41L17.05 7.41L17.05 7.41Q17.05 6.54 17.04 5.80L17.04 5.80L17.04 5.80Q17.04 5.07 17.04 5.03L17.04 5.03L17.04 5.03Q17.04 4.65 16.80 4.28L16.80 4.28L16.80 4.28Q16.56 3.91 16.02 3.91L16.02 3.91L16.02 3.91Q15.74 3.91 15.74 3.72ZM30.63 3.71L30.63 3.71L30.63 3.71Q30.63 3.50 31.02 3.50L31.02 3.50L31.02 3.50Q31.16 3.50 31.67 3.53L31.67 3.53L31.67 3.53Q32.17 3.56 32.61 3.56L32.61 3.56L32.61 3.56Q32.87 3.56 33.12 3.54L33.12 3.54L33.12 3.54Q33.36 3.53 33.84 3.53L33.84 3.53L33.84 3.53Q34.22 3.53 34.22 3.72L34.22 3.72L34.22 3.72Q34.22 3.84 33.57 4.10L33.57 4.10L33.57 4.10Q33.12 4.28 33.12 5.71L33.12 5.71L33.12 5.71Q33.12 7.60 33.10 9.05L33.10 9.05L33.10 9.05Q33.08 10.50 33.08 10.89L33.08 10.89L33.08 10.89Q33.08 12.07 33.43 12.59L33.43 12.59L33.43 12.59Q33.74 13.02 34.10 13.02L34.10 13.02L34.10 13.02Q34.13 13.02 34.24 13.03L34.24 13.03L34.24 13.03Q34.36 13.03 34.38 13.03L34.38 13.03L34.38 13.03Q34.48 13.03 34.58 13.08L34.58 13.08L34.58 13.08Q34.68 13.13 34.68 13.19L34.68 13.19L34.68 13.19Q34.68 13.34 34.60 13.39L34.60 13.39L34.60 13.39Q34.52 13.44 34.33 13.44L34.33 13.44L34.33 13.44Q33.91 13.44 33.55 13.41L33.55 13.41L33.55 13.41Q33.19 13.38 33.00 13.38L33.00 13.38L33.00 13.38Q32.61 13.38 32.14 13.42L32.14 13.42L32.14 13.42Q31.68 13.45 31.46 13.45L31.46 13.45L31.46 13.45Q30.83 13.45 30.83 13.24L30.83 13.24L30.83 13.24Q30.83 13.12 30.96 13.07L30.96 13.07L30.96 13.07Q31.09 13.02 31.26 13.00L31.26 13.00L31.26 13.00Q31.43 12.98 31.61 12.82L31.61 12.82L31.61 12.82Q31.79 12.66 31.86 12.35L31.86 12.35L31.86 12.35Q31.89 12.25 31.96 10.76L31.96 10.76L31.96 10.76Q32.02 9.27 32.02 8.61L32.02 8.61L32.02 7.81L32.02 7.81Q32.02 7.63 32.02 7.12L32.02 7.12L32.02 7.12Q32.03 6.61 32.03 6.30L32.03 6.30L32.03 5.66L32.03 5.66Q32.03 5.04 31.98 4.63L31.98 4.63L31.98 4.63Q31.93 4.30 31.61 4.12L31.61 4.12L31.61 4.12Q31.28 3.93 30.93 3.92L30.93 3.92L30.93 3.92Q30.63 3.91 30.63 3.71ZM42.56 8.90L42.56 8.90L42.56 8.90Q42.56 7.38 43.15 6.16L43.15 6.16L43.15 6.16Q43.74 4.94 44.96 4.19L44.96 4.19L44.96 4.19Q46.19 3.44 47.87 3.44L47.87 3.44L47.87 3.44Q48.72 3.44 49.59 3.70L49.59 3.70L49.59 3.70Q50.46 3.95 50.97 4.20L50.97 4.20L51.49 4.47L51.49 4.47Q51.53 4.47 51.63 4.40L51.63 4.40L51.63 4.40Q51.73 4.33 51.79 4.33L51.79 4.33L51.79 4.33Q51.86 4.33 51.93 4.38L51.93 4.38L51.93 4.38Q52.00 4.44 52.00 4.55L52.00 4.55L52.00 4.55Q52.01 4.96 52.06 5.41L52.06 5.41L52.06 5.41Q52.11 5.87 52.15 6.16L52.15 6.16L52.15 6.16Q52.19 6.45 52.19 6.51L52.19 6.51L52.19 6.51Q52.19 6.76 52.02 6.76L52.02 6.76L52.02 6.76Q51.90 6.76 51.79 6.57L51.79 6.57L51.79 6.57Q50.43 4.02 47.87 4.02L47.87 4.02L47.87 4.02Q46.12 4.02 45.00 5.14L45.00 5.14L45.00 5.14Q43.88 6.26 43.88 8.06L43.88 8.06L43.88 8.06Q43.88 9.06 44.14 9.93L44.14 9.93L44.14 9.93Q44.39 10.79 44.92 11.51L44.92 11.51L44.92 11.51Q45.44 12.24 46.37 12.66L46.37 12.66L46.37 12.66Q47.29 13.08 48.52 13.08L48.52 13.08L48.52 13.08Q50.54 13.08 51.91 10.98L51.91 10.98L51.91 10.98Q51.97 10.88 52.12 10.88L52.12 10.88L52.12 10.88Q52.25 10.88 52.25 11.07L52.25 11.07L52.25 11.07Q52.25 11.23 52.20 11.49L52.20 11.49L52.20 11.49Q52.15 11.75 52.08 12.06L52.08 12.06L52.08 12.06Q52.01 12.38 52.00 12.45L52.00 12.45L52.00 12.45Q51.97 12.60 51.77 12.70L51.77 12.70L51.77 12.70Q51.02 13.06 50.59 13.24L50.59 13.24L50.59 13.24Q50.16 13.43 49.50 13.57L49.50 13.57L49.50 13.57Q48.85 13.72 48.16 13.72L48.16 13.72L48.16 13.72Q46.94 13.72 45.96 13.43L45.96 13.43L45.96 13.43Q44.98 13.13 44.36 12.66L44.36 12.66L44.36 12.66Q43.74 12.18 43.32 11.54L43.32 11.54L43.32 11.54Q42.90 10.91 42.73 10.25L42.73 10.25L42.73 10.25Q42.56 9.60 42.56 8.90ZM70.84 8.83L70.84 8.83L70.84 8.83Q70.84 7.31 71.45 6.09L71.45 6.09L71.45 6.09Q72.06 4.87 73.32 4.12L73.32 4.12L73.32 4.12Q74.58 3.37 76.31 3.37L76.31 3.37L76.31 3.37Q76.99 3.37 77.57 3.48L77.57 3.48L77.57 3.48Q78.16 3.58 78.54 3.72L78.54 3.72L78.54 3.72Q78.92 3.86 79.20 4.01L79.20 4.01L79.20 4.01Q79.48 4.16 79.63 4.26L79.63 4.26L79.63 4.26Q79.77 4.37 79.80 4.37L79.80 4.37L79.80 4.37Q79.84 4.37 79.99 4.26L79.99 4.26L79.99 4.26Q80.14 4.16 80.19 4.16L80.19 4.16L80.19 4.16Q80.40 4.16 80.40 4.44L80.40 4.44L80.40 4.44Q80.42 4.84 80.47 5.29L80.47 5.29L80.47 5.29Q80.51 5.74 80.56 6.03L80.56 6.03L80.56 6.03Q80.60 6.33 80.60 6.38L80.60 6.38L80.60 6.38Q80.60 6.62 80.43 6.62L80.43 6.62L80.43 6.62Q80.26 6.62 80.19 6.45L80.19 6.45L80.19 6.45Q79.70 5.39 78.55 4.65L78.55 4.65L78.55 4.65Q77.41 3.92 76.19 3.92L76.19 3.92L76.19 3.92Q74.44 3.92 73.30 5.02L73.30 5.02L73.30 5.02Q72.16 6.12 72.16 8.06L72.16 8.06L72.16 8.06Q72.16 9.35 72.63 10.49L72.63 10.49L72.63 10.49Q73.11 11.62 74.08 12.36L74.08 12.36L74.08 12.36Q75.05 13.10 76.31 13.10L76.31 13.10L76.31 13.10Q77.39 13.10 78.27 12.61L78.27 12.61L78.27 12.61Q79.14 12.12 79.24 11.49L79.24 11.49L79.24 11.49Q79.28 11.16 79.28 9.73L79.28 9.73L79.28 9.73Q79.28 9.18 79.04 8.95L79.04 8.95L79.04 8.95Q78.88 8.78 78.43 8.72L78.43 8.72L78.43 8.72Q78.01 8.68 77.94 8.55L77.94 8.55L77.94 8.55Q77.91 8.50 77.91 8.41L77.91 8.41L77.91 8.41Q77.91 8.26 78.16 8.26L78.16 8.26L78.16 8.26Q78.34 8.26 78.95 8.29L78.95 8.29L78.95 8.29Q79.55 8.33 79.72 8.33L79.72 8.33L79.72 8.33Q80.00 8.33 80.32 8.32L80.32 8.32L80.32 8.32Q80.64 8.32 80.84 8.32L80.84 8.32L81.05 8.32L81.05 8.32Q81.27 8.32 81.27 8.44L81.27 8.44L81.27 8.44Q81.27 8.54 80.91 8.69L80.91 8.69L80.91 8.69Q80.56 8.85 80.51 9.09L80.51 9.09L80.51 9.09Q80.42 9.69 80.42 10.65L80.42 10.65L80.42 10.65Q80.42 11.07 80.43 11.40L80.43 11.40L80.43 11.40Q80.44 11.72 80.45 11.85L80.45 11.85L80.45 11.85Q80.46 11.98 80.47 12.08L80.47 12.08L80.47 12.08Q80.49 12.18 80.49 12.22L80.49 12.22L80.49 12.22Q80.49 12.29 80.38 12.33L80.38 12.33L80.38 12.33Q80.28 12.36 80.04 12.42L80.04 12.42L80.04 12.42Q79.80 12.49 79.60 12.60L79.60 12.60L79.51 12.66L79.51 12.66Q79.41 12.73 79.31 12.78L79.31 12.78L79.31 12.78Q79.21 12.84 79.05 12.92L79.05 12.92L79.05 12.92Q78.89 13.01 78.72 13.09L78.72 13.09L78.72 13.09Q78.55 13.17 78.34 13.26L78.34 13.26L78.34 13.26Q78.13 13.36 77.91 13.43L77.91 13.43L77.91 13.43Q77.69 13.50 77.45 13.55L77.45 13.55L77.45 13.55Q77.21 13.61 76.95 13.64L76.95 13.64L76.95 13.64Q76.69 13.68 76.44 13.68L76.44 13.68L76.44 13.68Q74.91 13.68 73.79 13.26L73.79 13.26L73.79 13.26Q72.66 12.85 72.04 12.14L72.04 12.14L72.04 12.14Q71.43 11.44 71.13 10.61L71.13 10.61L71.13 10.61Q70.84 9.79 70.84 8.83ZM88.96 13.33L88.96 13.33L88.96 13.33Q88.96 13.13 89.17 13.06L89.17 13.06L89.17 13.06Q89.61 12.89 89.95 12.31L89.95 12.31L89.95 12.31Q90.29 11.73 91.62 8.83L91.62 8.83L91.62 8.83Q92.99 5.87 94.04 3.63L94.04 3.63L94.04 3.63Q94.14 3.42 94.21 3.36L94.21 3.36L94.21 3.36Q94.29 3.30 94.46 3.30L94.46 3.30L94.46 3.30Q94.58 3.30 94.63 3.36L94.63 3.36L94.63 3.36Q94.67 3.42 94.81 3.82L94.81 3.82L94.81 3.82Q94.89 4.06 94.95 4.23L94.95 4.23L94.95 4.23Q95.02 4.40 95.16 4.77L95.16 4.77L95.16 4.77Q95.30 5.15 95.47 5.56L95.47 5.56L95.47 5.56Q95.91 6.66 97.01 9.22L97.01 9.22L97.01 9.22Q98.11 11.77 98.21 11.98L98.21 11.98L98.21 11.98Q98.45 12.46 98.74 12.71L98.74 12.71L98.74 12.71Q99.04 12.95 99.25 12.97L99.25 12.97L99.25 12.97Q99.47 12.99 99.62 13.04L99.62 13.04L99.62 13.04Q99.76 13.09 99.76 13.26L99.76 13.26L99.76 13.26Q99.76 13.47 99.39 13.47L99.39 13.47L99.39 13.47Q99.23 13.47 98.78 13.43L98.78 13.43L98.78 13.43Q98.34 13.38 98.13 13.38L98.13 13.38L98.13 13.38Q97.86 13.38 97.44 13.41L97.44 13.41L97.44 13.41Q97.02 13.44 96.82 13.44L96.82 13.44L96.82 13.44Q96.39 13.44 96.27 13.40L96.27 13.40L96.27 13.40Q96.15 13.37 96.15 13.24L96.15 13.24L96.15 13.24Q96.15 13.15 96.26 13.08L96.26 13.08L96.26 13.08Q96.38 13.02 96.50 13.00L96.50 13.00L96.50 13.00Q96.63 12.98 96.74 12.87L96.74 12.87L96.74 12.87Q96.85 12.77 96.85 12.59L96.85 12.59L96.85 12.59Q96.85 12.28 96.50 11.33L96.50 11.33L96.50 11.33Q96.15 10.37 95.91 9.93L95.91 9.93L95.91 9.93Q95.79 9.69 95.34 9.69L95.34 9.69L95.34 9.69Q95.27 9.69 94.72 9.70L94.72 9.70L94.72 9.70Q94.18 9.72 93.65 9.72L93.65 9.72L92.90 9.72L92.90 9.72Q92.27 9.72 92.11 9.79L92.11 9.79L92.11 9.79Q91.95 9.86 91.83 10.12L91.83 10.12L91.83 10.12Q91.74 10.30 91.55 10.70L91.55 10.70L91.55 10.70Q91.35 11.10 91.28 11.26L91.28 11.26L91.28 11.26Q91.21 11.41 91.11 11.65L91.11 11.65L91.11 11.65Q91 11.90 90.97 12.05L90.97 12.05L90.97 12.05Q90.93 12.19 90.93 12.31L90.93 12.31L90.93 12.31Q90.93 12.63 91.09 12.80L91.09 12.80L91.09 12.80Q91.25 12.96 91.45 12.98L91.45 12.98L91.45 12.98Q91.64 13.01 91.81 13.06L91.81 13.06L91.81 13.06Q91.97 13.12 91.97 13.26L91.97 13.26L91.97 13.26Q91.97 13.36 91.92 13.40L91.92 13.40L91.92 13.40Q91.88 13.45 91.73 13.45L91.73 13.45L91.73 13.45Q91.64 13.45 91.25 13.45L91.25 13.45L91.25 13.45Q90.85 13.44 90.57 13.44L90.57 13.44L90.57 13.44Q90.26 13.44 89.87 13.47L89.87 13.47L89.87 13.47Q89.49 13.50 89.36 13.50L89.36 13.50L89.36 13.50Q88.96 13.50 88.96 13.33ZM92.47 8.71L92.47 8.71L92.47 8.71Q92.47 8.89 92.60 8.93L92.60 8.93L92.60 8.93Q92.72 8.97 93.18 8.97L93.18 8.97L93.62 8.97L94.95 8.96L94.95 8.96Q95.49 8.96 95.49 8.74L95.49 8.74L95.49 8.74Q95.49 8.55 94.81 7.01L94.81 7.01L94.81 7.01Q94.12 5.46 93.94 5.46L93.94 5.46L93.94 5.46Q93.81 5.46 93.14 7.01L93.14 7.01L93.14 7.01Q92.47 8.55 92.47 8.71ZM107.32 3.71L107.32 3.71L107.32 3.71Q107.32 3.50 107.58 3.50L107.58 3.50L107.58 3.50Q107.66 3.50 107.96 3.53L107.96 3.53L107.96 3.53Q108.26 3.56 108.32 3.56L108.32 3.56L108.32 3.56Q108.53 3.56 108.89 3.54L108.89 3.54L108.89 3.54Q109.26 3.53 109.37 3.53L109.37 3.53L109.37 3.53Q109.63 3.53 109.70 3.72L109.70 3.72L109.70 3.72Q109.87 4.09 110.31 5.03L110.31 5.03L110.31 5.03Q110.74 5.98 111.00 6.54L111.00 6.54L111.00 6.54Q111.26 7.10 111.66 7.97L111.66 7.97L111.66 7.97Q112.07 8.83 112.32 9.37L112.32 9.37L112.32 9.37Q112.57 9.91 112.85 10.46L112.85 10.46L112.85 10.46Q113.12 11.00 113.27 11.26L113.27 11.26L113.27 11.26Q113.41 11.52 113.46 11.52L113.46 11.52L113.46 11.52Q113.50 11.52 113.55 11.47L113.55 11.47L113.55 11.47Q113.60 11.42 113.64 11.34L113.64 11.34L113.64 11.34Q113.69 11.26 113.73 11.17L113.73 11.17L113.73 11.17Q113.76 11.09 113.83 10.96L113.83 10.96L113.83 10.96Q113.89 10.82 113.92 10.75L113.92 10.75L115.72 7.03L115.72 7.03Q116.03 6.40 116.27 5.89L116.27 5.89L116.27 5.89Q116.51 5.39 116.65 5.08L116.65 5.08L116.65 5.08Q116.79 4.77 116.89 4.55L116.89 4.55L116.89 4.55Q116.98 4.33 117.03 4.21L117.03 4.21L117.03 4.21Q117.08 4.10 117.10 4.04L117.10 4.04L117.10 4.04Q117.12 3.98 117.14 3.94L117.14 3.94L117.14 3.94Q117.15 3.91 117.17 3.88L117.17 3.88L117.17 3.88Q117.18 3.85 117.22 3.75L117.22 3.75L117.22 3.75Q117.25 3.65 117.28 3.62L117.28 3.62L117.28 3.62Q117.32 3.58 117.42 3.54L117.42 3.54L117.42 3.54Q117.53 3.50 117.70 3.50L117.70 3.50L117.70 3.50Q117.96 3.50 118.19 3.51L118.19 3.51L118.19 3.51Q118.43 3.53 118.90 3.53L118.90 3.53L118.90 3.53Q119.14 3.53 119.14 3.71L119.14 3.71L119.14 3.71Q119.14 3.85 119.05 3.91L119.05 3.91L119.05 3.91Q118.96 3.98 118.68 4.02L118.68 4.02L118.68 4.02Q118.33 4.06 118.19 4.37L118.19 4.37L118.19 4.37Q118.05 4.68 118.05 5.54L118.05 5.54L118.05 5.54Q118.05 7.43 118.13 8.97L118.13 8.97L118.13 8.97Q118.22 10.50 118.22 10.89L118.22 10.89L118.22 10.89Q118.22 12.29 118.44 12.68L118.44 12.68L118.44 12.68Q118.66 13.06 119.38 13.06L119.38 13.06L119.38 13.06Q119.48 13.06 119.55 13.13L119.55 13.13L119.55 13.13Q119.63 13.20 119.63 13.26L119.63 13.26L119.63 13.26Q119.63 13.34 119.62 13.38L119.62 13.38L119.62 13.38Q119.60 13.43 119.56 13.45L119.56 13.45L119.56 13.45Q119.52 13.48 119.48 13.48L119.48 13.48L119.48 13.48Q119.43 13.48 119.32 13.48L119.32 13.48L119.32 13.48Q118.90 13.48 118.50 13.45L118.50 13.45L118.50 13.45Q118.09 13.43 117.89 13.43L117.89 13.43L117.89 13.43Q117.50 13.43 117.08 13.46L117.08 13.46L117.08 13.46Q116.66 13.50 116.44 13.50L116.44 13.50L116.44 13.50Q116.19 13.50 116.19 13.30L116.19 13.30L116.19 13.30Q116.19 13.17 116.30 13.12L116.30 13.12L116.30 13.12Q116.41 13.06 116.56 13.05L116.56 13.05L116.56 13.05Q116.70 13.03 116.86 12.87L116.86 12.87L116.86 12.87Q117.03 12.71 117.10 12.39L117.10 12.39L117.10 12.39Q117.15 12.11 117.15 11.49L117.15 11.49L117.15 11.49Q117.15 11.05 117.13 10.42L117.13 10.42L117.13 10.42Q117.11 9.79 117.08 9.19L117.08 9.19L117.08 9.19Q117.05 8.60 117.03 8.07L117.03 8.07L117.03 8.07Q117.00 7.55 116.98 7.21L116.98 7.21L116.96 6.87L116.96 6.87Q116.96 6.27 116.83 6.27L116.83 6.27L116.83 6.27Q116.82 6.27 116.79 6.29L116.79 6.29L116.79 6.29Q116.76 6.30 116.74 6.33L116.74 6.33L116.74 6.33Q116.72 6.36 116.69 6.38L116.69 6.38L116.69 6.38Q116.66 6.41 116.63 6.47L116.63 6.47L116.63 6.47Q116.61 6.54 116.58 6.58L116.58 6.58L116.58 6.58Q116.55 6.62 116.51 6.70L116.51 6.70L116.51 6.70Q116.47 6.78 116.44 6.83L116.44 6.83L116.44 6.83Q116.41 6.89 116.36 6.99L116.36 6.99L116.36 6.99Q116.31 7.08 116.28 7.15L116.28 7.15L114.34 11.09L114.34 11.09Q114.00 11.77 113.62 12.56L113.62 12.56L113.62 12.56Q113.37 13.09 113.32 13.18L113.32 13.18L113.32 13.18Q113.26 13.27 113.18 13.27L113.18 13.27L113.18 13.27Q113.05 13.27 112.97 13.15L112.97 13.15L112.97 13.15Q112.88 13.03 112.71 12.63L112.71 12.63L112.71 12.63Q112.55 12.22 112.42 11.96L112.42 11.96L112.42 11.96Q109.86 6.75 109.79 6.65L109.79 6.65L109.79 6.65Q109.75 6.59 109.70 6.59L109.70 6.59L109.70 6.59Q109.59 6.59 109.59 7.15L109.59 7.15L109.59 7.15Q109.58 8.25 109.52 9.31L109.52 9.31L109.52 9.31Q109.47 10.37 109.47 10.85L109.47 10.85L109.47 11.48L109.47 11.48Q109.47 11.84 109.49 12.04L109.49 12.04L109.49 12.04Q109.51 12.24 109.60 12.49L109.60 12.49L109.60 12.49Q109.69 12.75 109.93 12.89L109.93 12.89L109.93 12.89Q110.17 13.03 110.54 13.08L110.54 13.08L110.54 13.08Q110.61 13.08 110.68 13.13L110.68 13.13L110.68 13.13Q110.74 13.17 110.74 13.23L110.74 13.23L110.74 13.23Q110.74 13.38 110.70 13.43L110.70 13.43L110.70 13.43Q110.66 13.48 110.53 13.48L110.53 13.48L110.53 13.48Q110.25 13.48 109.69 13.45L109.69 13.45L109.69 13.45Q109.13 13.43 109.07 13.43L109.07 13.43L109.07 13.43Q109.05 13.43 108.67 13.45L108.67 13.45L108.67 13.45Q108.29 13.47 107.93 13.47L107.93 13.47L107.93 13.47Q107.81 13.47 107.77 13.45L107.77 13.45L107.77 13.45Q107.72 13.44 107.67 13.39L107.67 13.39L107.67 13.39Q107.63 13.34 107.63 13.24L107.63 13.24L107.63 13.24Q107.63 13.13 107.76 13.09L107.76 13.09L107.76 13.09Q107.88 13.05 108.05 13.04L108.05 13.04L108.05 13.04Q108.21 13.03 108.40 12.82L108.40 12.82L108.40 12.82Q108.60 12.60 108.70 12.18L108.70 12.18L108.70 12.18Q108.77 11.87 108.86 9.74L108.86 9.74L108.86 9.74Q108.96 7.62 108.96 6.59L108.96 6.59L108.96 6.59Q108.96 5.19 108.69 4.66L108.69 4.66L108.69 4.66Q108.42 4.13 107.51 3.92L107.51 3.92L107.51 3.92Q107.32 3.88 107.32 3.71ZM127.19 3.71L127.19 3.71L127.19 3.71Q127.19 3.50 127.58 3.50L127.58 3.50L127.58 3.50Q127.72 3.50 128.23 3.53L128.23 3.53L128.23 3.53Q128.73 3.56 129.16 3.56L129.16 3.56L129.16 3.56Q129.43 3.56 129.67 3.54L129.67 3.54L129.67 3.54Q129.92 3.53 130.40 3.53L130.40 3.53L130.40 3.53Q130.77 3.53 130.77 3.72L130.77 3.72L130.77 3.72Q130.77 3.84 130.13 4.10L130.13 4.10L130.13 4.10Q129.68 4.28 129.68 5.71L129.68 5.71L129.68 5.71Q129.68 7.60 129.66 9.05L129.66 9.05L129.66 9.05Q129.64 10.50 129.64 10.89L129.64 10.89L129.64 10.89Q129.64 12.07 129.99 12.59L129.99 12.59L129.99 12.59Q130.30 13.02 130.66 13.02L130.66 13.02L130.66 13.02Q130.69 13.02 130.80 13.03L130.80 13.03L130.80 13.03Q130.91 13.03 130.94 13.03L130.94 13.03L130.94 13.03Q131.04 13.03 131.14 13.08L131.14 13.08L131.14 13.08Q131.24 13.13 131.24 13.19L131.24 13.19L131.24 13.19Q131.24 13.34 131.16 13.39L131.16 13.39L131.16 13.39Q131.08 13.44 130.89 13.44L130.89 13.44L130.89 13.44Q130.47 13.44 130.11 13.41L130.11 13.41L130.11 13.41Q129.75 13.38 129.56 13.38L129.56 13.38L129.56 13.38Q129.16 13.38 128.70 13.42L128.70 13.42L128.70 13.42Q128.24 13.45 128.02 13.45L128.02 13.45L128.02 13.45Q127.39 13.45 127.39 13.24L127.39 13.24L127.39 13.24Q127.39 13.12 127.52 13.07L127.52 13.07L127.52 13.07Q127.65 13.02 127.82 13.00L127.82 13.00L127.82 13.00Q127.99 12.98 128.17 12.82L128.17 12.82L128.17 12.82Q128.35 12.66 128.42 12.35L128.42 12.35L128.42 12.35Q128.45 12.25 128.51 10.76L128.51 10.76L128.51 10.76Q128.58 9.27 128.58 8.61L128.58 8.61L128.58 7.81L128.58 7.81Q128.58 7.63 128.58 7.12L128.58 7.12L128.58 7.12Q128.59 6.61 128.59 6.30L128.59 6.30L128.59 5.66L128.59 5.66Q128.59 5.04 128.53 4.63L128.53 4.63L128.53 4.63Q128.49 4.30 128.16 4.12L128.16 4.12L128.16 4.12Q127.83 3.93 127.48 3.92L127.48 3.92L127.48 3.92Q127.19 3.91 127.19 3.71ZM138.78 3.77L138.78 3.77L138.78 3.77Q138.78 3.68 138.88 3.60L138.88 3.60L138.88 3.60Q138.98 3.53 139.13 3.53L139.13 3.53L139.13 3.53Q139.22 3.53 139.41 3.54L139.41 3.54L139.41 3.54Q139.61 3.54 139.66 3.54L139.66 3.54L139.66 3.54Q139.87 3.54 140.06 3.53L140.06 3.53L140.06 3.53Q140.24 3.51 140.35 3.51L140.35 3.51L140.35 3.51Q140.48 3.51 140.64 3.59L140.64 3.59L140.64 3.59Q140.81 3.67 140.84 3.75L140.84 3.75L140.84 3.75Q140.87 3.79 140.99 3.94L140.99 3.94L140.99 3.94Q141.12 4.09 141.33 4.33L141.33 4.33L141.33 4.33Q141.54 4.56 141.71 4.79L141.71 4.79L141.71 4.79Q143.61 7.27 146.80 10.77L146.80 10.77L146.80 10.77Q146.89 10.86 147.01 10.99L147.01 10.99L147.01 10.99Q147.13 11.12 147.18 11.18L147.18 11.18L147.18 11.18Q147.22 11.24 147.28 11.30L147.28 11.30L147.28 11.30Q147.34 11.35 147.37 11.38L147.37 11.38L147.37 11.38Q147.41 11.40 147.43 11.40L147.43 11.40L147.43 11.40Q147.57 11.40 147.57 10.53L147.57 10.53L147.57 8.89L147.57 8.89Q147.57 7.95 147.57 7.31L147.57 7.31L147.57 7.31Q147.56 6.66 147.55 6.38L147.55 6.38L147.55 6.38Q147.55 6.09 147.55 6.02L147.55 6.02L147.55 5.92L147.55 5.92Q147.55 5.45 147.48 5.11L147.48 5.11L147.48 5.11Q147.42 4.77 147.34 4.59L147.34 4.59L147.34 4.59Q147.25 4.41 147.09 4.28L147.09 4.28L147.09 4.28Q146.93 4.16 146.82 4.12L146.82 4.12L146.82 4.12Q146.71 4.09 146.50 4.05L146.50 4.05L146.50 4.05Q146.29 4.00 146.20 3.98L146.20 3.98L146.20 3.98Q145.92 3.89 145.92 3.74L145.92 3.74L145.92 3.74Q145.92 3.53 146.19 3.53L146.19 3.53L146.19 3.53Q146.27 3.53 146.86 3.54L146.86 3.54L146.86 3.54Q147.45 3.54 147.52 3.54L147.52 3.54L147.52 3.54Q147.85 3.54 148.27 3.53L148.27 3.53L148.27 3.53Q148.68 3.51 148.78 3.51L148.78 3.51L148.78 3.51Q149.02 3.51 149.11 3.56L149.11 3.56L149.11 3.56Q149.20 3.61 149.20 3.75L149.20 3.75L149.20 3.75Q149.20 3.81 149.12 3.86L149.12 3.86L149.12 3.86Q149.04 3.91 148.96 3.94L148.96 3.94L148.96 3.94Q148.88 3.98 148.79 4.00L148.79 4.00L148.71 4.03L148.71 4.03Q148.25 4.28 148.25 5.61L148.25 5.61L148.25 6.15L148.25 6.15Q148.25 7.21 148.17 9.83L148.17 9.83L148.17 9.83Q148.09 12.46 148.09 13.08L148.09 13.08L148.09 13.36L148.09 13.36Q148.09 13.68 147.90 13.68L147.90 13.68L147.90 13.68Q147.77 13.68 147.67 13.58L147.67 13.58L147.67 13.58Q143.02 8.19 142.12 7.17L142.12 7.17L142.12 7.17Q141.22 6.16 141.12 6.16L141.12 6.16L141.12 6.16Q140.98 6.16 140.98 7.11L140.98 7.11L140.98 7.11Q140.98 8.44 140.92 9.97L140.92 9.97L140.92 9.97Q140.87 11.51 140.87 11.65L140.87 11.65L140.87 11.65Q140.87 12.28 141.09 12.61L141.09 12.61L141.09 12.61Q141.30 12.94 141.55 12.98L141.55 12.98L141.55 12.98Q141.81 13.02 142.02 13.07L142.02 13.07L142.02 13.07Q142.24 13.12 142.24 13.26L142.24 13.26L142.24 13.26Q142.24 13.41 142.19 13.45L142.19 13.45L142.19 13.45Q142.14 13.50 142.02 13.50L142.02 13.50L142.02 13.50Q141.92 13.50 141.58 13.48L141.58 13.48L141.58 13.48Q141.23 13.47 140.52 13.47L140.52 13.47L140.52 13.47Q140.39 13.47 140 13.48L140 13.48L140 13.48Q139.61 13.50 139.33 13.50L139.33 13.50L139.33 13.50Q139.02 13.50 139.02 13.27L139.02 13.27L139.02 13.27Q139.02 13.15 139.20 13.11L139.20 13.11L139.20 13.11Q139.38 13.08 139.65 12.89L139.65 12.89L139.65 12.89Q139.92 12.71 140.06 12.21L140.06 12.21L140.06 12.21Q140.14 11.89 140.27 9.60L140.27 9.60L140.27 9.60Q140.39 7.32 140.39 6.45L140.39 6.45L140.39 6.45Q140.39 5.25 140.06 4.65L140.06 4.65L140.06 4.65Q139.72 4.06 138.96 3.98L138.96 3.98L138.96 3.98Q138.78 3.96 138.78 3.77ZM157.29 8.83L157.29 8.83L157.29 8.83Q157.29 7.31 157.90 6.09L157.90 6.09L157.90 6.09Q158.51 4.87 159.77 4.12L159.77 4.12L159.77 4.12Q161.03 3.37 162.76 3.37L162.76 3.37L162.76 3.37Q163.44 3.37 164.02 3.48L164.02 3.48L164.02 3.48Q164.61 3.58 164.99 3.72L164.99 3.72L164.99 3.72Q165.37 3.86 165.65 4.01L165.65 4.01L165.65 4.01Q165.93 4.16 166.08 4.26L166.08 4.26L166.08 4.26Q166.22 4.37 166.25 4.37L166.25 4.37L166.25 4.37Q166.29 4.37 166.44 4.26L166.44 4.26L166.44 4.26Q166.59 4.16 166.64 4.16L166.64 4.16L166.64 4.16Q166.85 4.16 166.85 4.44L166.85 4.44L166.85 4.44Q166.87 4.84 166.92 5.29L166.92 5.29L166.92 5.29Q166.96 5.74 167.01 6.03L167.01 6.03L167.01 6.03Q167.05 6.33 167.05 6.38L167.05 6.38L167.05 6.38Q167.05 6.62 166.88 6.62L166.88 6.62L166.88 6.62Q166.71 6.62 166.64 6.45L166.64 6.45L166.64 6.45Q166.15 5.39 165.00 4.65L165.00 4.65L165.00 4.65Q163.86 3.92 162.64 3.92L162.64 3.92L162.64 3.92Q160.89 3.92 159.75 5.02L159.75 5.02L159.75 5.02Q158.61 6.12 158.61 8.06L158.61 8.06L158.61 8.06Q158.61 9.35 159.08 10.49L159.08 10.49L159.08 10.49Q159.56 11.62 160.53 12.36L160.53 12.36L160.53 12.36Q161.50 13.10 162.76 13.10L162.76 13.10L162.76 13.10Q163.84 13.10 164.72 12.61L164.72 12.61L164.72 12.61Q165.59 12.12 165.69 11.49L165.69 11.49L165.69 11.49Q165.73 11.16 165.73 9.73L165.73 9.73L165.73 9.73Q165.73 9.18 165.49 8.95L165.49 8.95L165.49 8.95Q165.33 8.78 164.88 8.72L164.88 8.72L164.88 8.72Q164.46 8.68 164.39 8.55L164.39 8.55L164.39 8.55Q164.36 8.50 164.36 8.41L164.36 8.41L164.36 8.41Q164.36 8.26 164.61 8.26L164.61 8.26L164.61 8.26Q164.79 8.26 165.40 8.29L165.40 8.29L165.40 8.29Q166.00 8.33 166.17 8.33L166.17 8.33L166.17 8.33Q166.45 8.33 166.77 8.32L166.77 8.32L166.77 8.32Q167.09 8.32 167.29 8.32L167.29 8.32L167.50 8.32L167.50 8.32Q167.72 8.32 167.72 8.44L167.72 8.44L167.72 8.44Q167.72 8.54 167.36 8.69L167.36 8.69L167.36 8.69Q167.01 8.85 166.96 9.09L166.96 9.09L166.96 9.09Q166.87 9.69 166.87 10.65L166.87 10.65L166.87 10.65Q166.87 11.07 166.88 11.40L166.88 11.40L166.88 11.40Q166.89 11.72 166.90 11.85L166.90 11.85L166.90 11.85Q166.91 11.98 166.92 12.08L166.92 12.08L166.92 12.08Q166.94 12.18 166.94 12.22L166.94 12.22L166.94 12.22Q166.94 12.29 166.83 12.33L166.83 12.33L166.83 12.33Q166.73 12.36 166.49 12.42L166.49 12.42L166.49 12.42Q166.25 12.49 166.05 12.60L166.05 12.60L165.96 12.66L165.96 12.66Q165.86 12.73 165.76 12.78L165.76 12.78L165.76 12.78Q165.66 12.84 165.50 12.92L165.50 12.92L165.50 12.92Q165.34 13.01 165.17 13.09L165.17 13.09L165.17 13.09Q165.00 13.17 164.79 13.26L164.79 13.26L164.79 13.26Q164.58 13.36 164.36 13.43L164.36 13.43L164.36 13.43Q164.14 13.50 163.90 13.55L163.90 13.55L163.90 13.55Q163.66 13.61 163.40 13.64L163.40 13.64L163.40 13.64Q163.14 13.68 162.89 13.68L162.89 13.68L162.89 13.68Q161.36 13.68 160.24 13.26L160.24 13.26L160.24 13.26Q159.11 12.85 158.49 12.14L158.49 12.14L158.49 12.14Q157.88 11.44 157.58 10.61L157.58 10.61L157.58 10.61Q157.29 9.79 157.29 8.83ZM185.72 8.90L185.72 8.90L185.72 8.90Q185.72 7.38 186.31 6.16L186.31 6.16L186.31 6.16Q186.90 4.94 188.13 4.19L188.13 4.19L188.13 4.19Q189.35 3.44 191.03 3.44L191.03 3.44L191.03 3.44Q191.88 3.44 192.75 3.70L192.75 3.70L192.75 3.70Q193.62 3.95 194.14 4.20L194.14 4.20L194.66 4.47L194.66 4.47Q194.70 4.47 194.80 4.40L194.80 4.40L194.80 4.40Q194.89 4.33 194.95 4.33L194.95 4.33L194.95 4.33Q195.02 4.33 195.09 4.38L195.09 4.38L195.09 4.38Q195.16 4.44 195.16 4.55L195.16 4.55L195.16 4.55Q195.17 4.96 195.22 5.41L195.22 5.41L195.22 5.41Q195.27 5.87 195.31 6.16L195.31 6.16L195.31 6.16Q195.36 6.45 195.36 6.51L195.36 6.51L195.36 6.51Q195.36 6.76 195.19 6.76L195.19 6.76L195.19 6.76Q195.06 6.76 194.95 6.57L194.95 6.57L194.95 6.57Q193.59 4.02 191.03 4.02L191.03 4.02L191.03 4.02Q189.28 4.02 188.16 5.14L188.16 5.14L188.16 5.14Q187.04 6.26 187.04 8.06L187.04 8.06L187.04 8.06Q187.04 9.06 187.30 9.93L187.30 9.93L187.30 9.93Q187.56 10.79 188.08 11.51L188.08 11.51L188.08 11.51Q188.61 12.24 189.53 12.66L189.53 12.66L189.53 12.66Q190.46 13.08 191.69 13.08L191.69 13.08L191.69 13.08Q193.70 13.08 195.08 10.98L195.08 10.98L195.08 10.98Q195.13 10.88 195.29 10.88L195.29 10.88L195.29 10.88Q195.41 10.88 195.41 11.07L195.41 11.07L195.41 11.07Q195.41 11.23 195.36 11.49L195.36 11.49L195.36 11.49Q195.31 11.75 195.24 12.06L195.24 12.06L195.24 12.06Q195.17 12.38 195.16 12.45L195.16 12.45L195.16 12.45Q195.13 12.60 194.94 12.70L194.94 12.70L194.94 12.70Q194.18 13.06 193.75 13.24L193.75 13.24L193.75 13.24Q193.33 13.43 192.67 13.57L192.67 13.57L192.67 13.57Q192.01 13.72 191.32 13.72L191.32 13.72L191.32 13.72Q190.11 13.72 189.13 13.43L189.13 13.43L189.13 13.43Q188.15 13.13 187.52 12.66L187.52 12.66L187.52 12.66Q186.90 12.18 186.48 11.54L186.48 11.54L186.48 11.54Q186.06 10.91 185.89 10.25L185.89 10.25L185.89 10.25Q185.72 9.60 185.72 8.90ZM203.69 3.65L203.69 3.65L203.69 3.65Q203.69 3.50 204.08 3.50L204.08 3.50L204.08 3.50Q204.22 3.50 204.72 3.53L204.72 3.53L204.72 3.53Q205.23 3.56 205.66 3.56L205.66 3.56L205.66 3.56Q205.93 3.56 206.17 3.54L206.17 3.54L206.17 3.54Q206.42 3.53 206.89 3.53L206.89 3.53L206.89 3.53Q207.20 3.53 207.20 3.72L207.20 3.72L207.20 3.72Q207.20 3.96 206.71 3.96L206.71 3.96L206.71 3.96Q206.43 3.96 206.30 4.54L206.30 4.54L206.30 4.54Q206.18 5.11 206.18 5.71L206.18 5.71L206.18 6.23L206.18 6.23Q206.18 6.57 206.16 6.99L206.16 6.99L206.16 6.99Q206.15 7.42 206.15 7.52L206.15 7.52L206.15 7.52Q206.15 7.87 206.23 7.97L206.23 7.97L206.23 7.97Q206.32 8.06 206.63 8.06L206.63 8.06L206.63 8.06Q206.65 8.06 207.17 8.06L207.17 8.06L207.17 8.06Q207.69 8.05 208.92 8.05L208.92 8.05L208.92 8.05Q209.03 8.05 209.30 8.06L209.30 8.06L209.30 8.06Q209.57 8.06 210.18 8.07L210.18 8.07L210.18 8.07Q210.78 8.08 211.57 8.08L211.57 8.08L211.57 8.08Q211.67 8.08 211.69 7.84L211.69 7.84L211.69 7.84Q211.72 7.56 211.72 6.13L211.72 6.13L211.72 5.38L211.72 5.38Q211.72 4.83 211.60 4.51L211.60 4.51L211.60 4.51Q211.48 4.19 211.31 4.09L211.31 4.09L211.31 4.09Q211.13 3.99 210.96 3.96L210.96 3.96L210.96 3.96Q210.78 3.93 210.67 3.88L210.67 3.88L210.67 3.88Q210.55 3.84 210.55 3.70L210.55 3.70L210.55 3.70Q210.55 3.56 211.09 3.56L211.09 3.56L211.09 3.56Q211.23 3.56 211.69 3.57L211.69 3.57L211.69 3.57Q212.16 3.58 212.45 3.58L212.45 3.58L212.45 3.58Q212.59 3.58 212.93 3.57L212.93 3.57L212.93 3.57Q213.26 3.56 213.54 3.56L213.54 3.56L213.54 3.56Q213.86 3.56 213.86 3.74L213.86 3.74L213.86 3.74Q213.86 3.92 213.67 3.92L213.67 3.92L213.67 3.92Q213.28 3.92 213.07 4.16L213.07 4.16L213.07 4.16Q212.87 4.40 212.87 4.79L212.87 4.79L212.87 4.79Q212.87 5.25 212.85 6.42L212.85 6.42L212.85 6.42Q212.83 7.59 212.83 8.19L212.83 8.19L212.83 8.19Q212.83 8.51 212.81 9.20L212.81 9.20L212.81 9.20Q212.80 9.90 212.80 10.29L212.80 10.29L212.80 10.81L212.80 10.81Q212.80 11.23 212.83 11.58L212.83 11.58L212.83 11.58Q212.86 11.94 212.86 12.10L212.86 12.10L212.86 12.10Q212.86 13.01 214.03 13.13L214.03 13.13L214.03 13.13Q214.20 13.13 214.20 13.29L214.20 13.29L214.20 13.29Q214.20 13.38 214.06 13.41L214.06 13.41L214.06 13.41Q213.92 13.44 213.51 13.44L213.51 13.44L213.51 13.44Q213.36 13.44 213.00 13.40L213.00 13.40L213.00 13.40Q212.65 13.37 212.44 13.37L212.44 13.37L212.44 13.37Q212.18 13.37 211.83 13.40L211.83 13.40L211.83 13.40Q211.47 13.44 211.12 13.44L211.12 13.44L211.12 13.44Q210.95 13.44 210.88 13.44L210.88 13.44L210.88 13.44Q210.81 13.44 210.74 13.42L210.74 13.42L210.74 13.42Q210.66 13.40 210.64 13.36L210.64 13.36L210.64 13.36Q210.62 13.33 210.62 13.26L210.62 13.26L210.62 13.26Q210.62 13.17 210.76 13.10L210.76 13.10L210.76 13.10Q210.90 13.03 211.06 12.99L211.06 12.99L211.06 12.99Q211.23 12.95 211.39 12.83L211.39 12.83L211.39 12.83Q211.55 12.71 211.58 12.53L211.58 12.53L211.58 12.53Q211.68 12.03 211.68 11.51L211.68 11.51L211.68 11.51Q211.68 11.37 211.69 11.12L211.69 11.12L211.69 11.12Q211.69 10.86 211.69 10.75L211.69 10.75L211.69 10.75Q211.69 10.50 211.71 9.93L211.71 9.93L211.71 9.93Q211.72 9.35 211.72 9.03L211.72 9.03L211.72 9.03Q211.72 8.82 211.55 8.74L211.55 8.74L211.55 8.74Q211.39 8.65 210.84 8.65L210.84 8.65L210.84 8.65Q210.63 8.65 209.87 8.68L209.87 8.68L209.12 8.69L209.12 8.69Q208.50 8.69 207.73 8.67L207.73 8.67L207.73 8.67Q206.96 8.65 206.54 8.65L206.54 8.65L206.54 8.65Q206.33 8.65 206.26 8.74L206.26 8.74L206.26 8.74Q206.19 8.82 206.19 9.17L206.19 9.17L206.19 9.17Q206.19 9.52 206.16 10.08L206.16 10.08L206.16 10.08Q206.14 10.64 206.14 10.89L206.14 10.89L206.14 11.49L206.14 11.49Q206.14 12.10 206.25 12.39L206.25 12.39L206.25 12.39Q206.36 12.68 206.79 12.96L206.79 12.96L206.79 12.96Q206.91 13.03 207.40 13.03L207.40 13.03L207.40 13.03Q207.49 13.03 207.58 13.08L207.58 13.08L207.58 13.08Q207.66 13.13 207.66 13.19L207.66 13.19L207.66 13.19Q207.66 13.44 207.21 13.44L207.21 13.44L207.21 13.44Q206.79 13.44 206.52 13.41L206.52 13.41L206.52 13.41Q206.25 13.38 206.05 13.38L206.05 13.38L206.05 13.38Q205.66 13.38 205.21 13.42L205.21 13.42L205.21 13.42Q204.76 13.45 204.54 13.45L204.54 13.45L204.54 13.45Q203.88 13.45 203.88 13.24L203.88 13.24L203.88 13.24Q203.88 13.12 204.02 13.07L204.02 13.07L204.02 13.07Q204.15 13.02 204.32 13.00L204.32 13.00L204.32 13.00Q204.48 12.98 204.67 12.82L204.67 12.82L204.67 12.82Q204.85 12.66 204.92 12.35L204.92 12.35L204.92 12.35Q204.96 12.11 205.03 10.91L205.03 10.91L205.03 10.91Q205.10 9.70 205.10 8.61L205.10 8.61L205.10 7.81L205.10 7.81Q205.10 7.63 205.11 7.12L205.11 7.12L205.11 7.12Q205.11 6.61 205.11 6.30L205.11 6.30L205.11 6.30Q205.11 5.24 205.03 4.63L205.03 4.63L205.03 4.63Q204.99 4.28 204.66 4.09L204.66 4.09L204.66 4.09Q204.33 3.89 203.98 3.89L203.98 3.89L203.98 3.89Q203.84 3.89 203.76 3.80L203.76 3.80L203.76 3.80Q203.69 3.71 203.69 3.65ZM221.76 13.33L221.76 13.33L221.76 13.33Q221.76 13.13 221.97 13.06L221.97 13.06L221.97 13.06Q222.42 12.89 222.75 12.31L222.75 12.31L222.75 12.31Q223.09 11.73 224.42 8.83L224.42 8.83L224.42 8.83Q225.79 5.87 226.84 3.63L226.84 3.63L226.84 3.63Q226.94 3.42 227.02 3.36L227.02 3.36L227.02 3.36Q227.09 3.30 227.26 3.30L227.26 3.30L227.26 3.30Q227.39 3.30 227.43 3.36L227.43 3.36L227.43 3.36Q227.47 3.42 227.61 3.82L227.61 3.82L227.61 3.82Q227.70 4.06 227.76 4.23L227.76 4.23L227.76 4.23Q227.82 4.40 227.96 4.77L227.96 4.77L227.96 4.77Q228.10 5.15 228.27 5.56L228.27 5.56L228.27 5.56Q228.72 6.66 229.82 9.22L229.82 9.22L229.82 9.22Q230.92 11.77 231.01 11.98L231.01 11.98L231.01 11.98Q231.25 12.46 231.55 12.71L231.55 12.71L231.55 12.71Q231.84 12.95 232.06 12.97L232.06 12.97L232.06 12.97Q232.27 12.99 232.42 13.04L232.42 13.04L232.42 13.04Q232.57 13.09 232.57 13.26L232.57 13.26L232.57 13.26Q232.57 13.47 232.19 13.47L232.19 13.47L232.19 13.47Q232.04 13.47 231.59 13.43L231.59 13.43L231.59 13.43Q231.14 13.38 230.93 13.38L230.93 13.38L230.93 13.38Q230.66 13.38 230.24 13.41L230.24 13.41L230.24 13.41Q229.82 13.44 229.63 13.44L229.63 13.44L229.63 13.44Q229.19 13.44 229.08 13.40L229.08 13.40L229.08 13.40Q228.96 13.37 228.96 13.24L228.96 13.24L228.96 13.24Q228.96 13.15 229.07 13.08L229.07 13.08L229.07 13.08Q229.18 13.02 229.31 13.00L229.31 13.00L229.31 13.00Q229.43 12.98 229.54 12.87L229.54 12.87L229.54 12.87Q229.66 12.77 229.66 12.59L229.66 12.59L229.66 12.59Q229.66 12.28 229.31 11.33L229.31 11.33L229.31 11.33Q228.96 10.37 228.72 9.93L228.72 9.93L228.72 9.93Q228.59 9.69 228.14 9.69L228.14 9.69L228.14 9.69Q228.07 9.69 227.53 9.70L227.53 9.70L227.53 9.70Q226.98 9.72 226.45 9.72L226.45 9.72L225.71 9.72L225.71 9.72Q225.08 9.72 224.92 9.79L224.92 9.79L224.92 9.79Q224.76 9.86 224.63 10.12L224.63 10.12L224.63 10.12Q224.55 10.30 224.35 10.70L224.35 10.70L224.35 10.70Q224.15 11.10 224.08 11.26L224.08 11.26L224.08 11.26Q224.01 11.41 223.91 11.65L223.91 11.65L223.91 11.65Q223.80 11.90 223.77 12.05L223.77 12.05L223.77 12.05Q223.73 12.19 223.73 12.31L223.73 12.31L223.73 12.31Q223.73 12.63 223.90 12.80L223.90 12.80L223.90 12.80Q224.06 12.96 224.25 12.98L224.25 12.98L224.25 12.98Q224.45 13.01 224.61 13.06L224.61 13.06L224.61 13.06Q224.77 13.12 224.77 13.26L224.77 13.26L224.77 13.26Q224.77 13.36 224.73 13.40L224.73 13.40L224.73 13.40Q224.69 13.45 224.53 13.45L224.53 13.45L224.53 13.45Q224.45 13.45 224.05 13.45L224.05 13.45L224.05 13.45Q223.65 13.44 223.37 13.44L223.37 13.44L223.37 13.44Q223.06 13.44 222.68 13.47L222.68 13.47L222.68 13.47Q222.29 13.50 222.17 13.50L222.17 13.50L222.17 13.50Q221.76 13.50 221.76 13.33ZM225.27 8.71L225.27 8.71L225.27 8.71Q225.27 8.89 225.40 8.93L225.40 8.93L225.40 8.93Q225.53 8.97 225.99 8.97L225.99 8.97L226.42 8.97L227.75 8.96L227.75 8.96Q228.30 8.96 228.30 8.74L228.30 8.74L228.30 8.74Q228.30 8.55 227.61 7.01L227.61 7.01L227.61 7.01Q226.93 5.46 226.74 5.46L226.74 5.46L226.74 5.46Q226.62 5.46 225.95 7.01L225.95 7.01L225.95 7.01Q225.27 8.55 225.27 8.71ZM240.13 3.77L240.13 3.77L240.13 3.77Q240.13 3.68 240.23 3.60L240.23 3.60L240.23 3.60Q240.32 3.53 240.48 3.53L240.48 3.53L240.48 3.53Q240.56 3.53 240.76 3.54L240.76 3.54L240.76 3.54Q240.95 3.54 241.01 3.54L241.01 3.54L241.01 3.54Q241.22 3.54 241.40 3.53L241.40 3.53L241.40 3.53Q241.58 3.51 241.70 3.51L241.70 3.51L241.70 3.51Q241.82 3.51 241.99 3.59L241.99 3.59L241.99 3.59Q242.16 3.67 242.19 3.75L242.19 3.75L242.19 3.75Q242.21 3.79 242.34 3.94L242.34 3.94L242.34 3.94Q242.47 4.09 242.68 4.33L242.68 4.33L242.68 4.33Q242.89 4.56 243.05 4.79L243.05 4.79L243.05 4.79Q244.96 7.27 248.15 10.77L248.15 10.77L248.15 10.77Q248.23 10.86 248.35 10.99L248.35 10.99L248.35 10.99Q248.47 11.12 248.52 11.18L248.52 11.18L248.52 11.18Q248.57 11.24 248.63 11.30L248.63 11.30L248.63 11.30Q248.68 11.35 248.72 11.38L248.72 11.38L248.72 11.38Q248.75 11.40 248.78 11.40L248.78 11.40L248.78 11.40Q248.92 11.40 248.92 10.53L248.92 10.53L248.92 8.89L248.92 8.89Q248.92 7.95 248.91 7.31L248.91 7.31L248.91 7.31Q248.91 6.66 248.90 6.38L248.90 6.38L248.90 6.38Q248.89 6.09 248.89 6.02L248.89 6.02L248.89 5.92L248.89 5.92Q248.89 5.45 248.83 5.11L248.83 5.11L248.83 5.11Q248.77 4.77 248.68 4.59L248.68 4.59L248.68 4.59Q248.60 4.41 248.44 4.28L248.44 4.28L248.44 4.28Q248.28 4.16 248.16 4.12L248.16 4.12L248.16 4.12Q248.05 4.09 247.84 4.05L247.84 4.05L247.84 4.05Q247.63 4.00 247.55 3.98L247.55 3.98L247.55 3.98Q247.27 3.89 247.27 3.74L247.27 3.74L247.27 3.74Q247.27 3.53 247.53 3.53L247.53 3.53L247.53 3.53Q247.62 3.53 248.21 3.54L248.21 3.54L248.21 3.54Q248.79 3.54 248.86 3.54L248.86 3.54L248.86 3.54Q249.20 3.54 249.61 3.53L249.61 3.53L249.61 3.53Q250.03 3.51 250.12 3.51L250.12 3.51L250.12 3.51Q250.36 3.51 250.45 3.56L250.45 3.56L250.45 3.56Q250.54 3.61 250.54 3.75L250.54 3.75L250.54 3.75Q250.54 3.81 250.47 3.86L250.47 3.86L250.47 3.86Q250.39 3.91 250.31 3.94L250.31 3.94L250.31 3.94Q250.22 3.98 250.14 4.00L250.14 4.00L250.05 4.03L250.05 4.03Q249.59 4.28 249.59 5.61L249.59 5.61L249.59 6.15L249.59 6.15Q249.59 7.21 249.52 9.83L249.52 9.83L249.52 9.83Q249.44 12.46 249.44 13.08L249.44 13.08L249.44 13.36L249.44 13.36Q249.44 13.68 249.24 13.68L249.24 13.68L249.24 13.68Q249.12 13.68 249.02 13.58L249.02 13.58L249.02 13.58Q244.37 8.19 243.47 7.17L243.47 7.17L243.47 7.17Q242.56 6.16 242.47 6.16L242.47 6.16L242.47 6.16Q242.33 6.16 242.33 7.11L242.33 7.11L242.33 7.11Q242.33 8.44 242.27 9.97L242.27 9.97L242.27 9.97Q242.21 11.51 242.21 11.65L242.21 11.65L242.21 11.65Q242.21 12.28 242.43 12.61L242.43 12.61L242.43 12.61Q242.65 12.94 242.90 12.98L242.90 12.98L242.90 12.98Q243.15 13.02 243.37 13.07L243.37 13.07L243.37 13.07Q243.59 13.12 243.59 13.26L243.59 13.26L243.59 13.26Q243.59 13.41 243.54 13.45L243.54 13.45L243.54 13.45Q243.49 13.50 243.36 13.50L243.36 13.50L243.36 13.50Q243.26 13.50 242.92 13.48L242.92 13.48L242.92 13.48Q242.58 13.47 241.86 13.47L241.86 13.47L241.86 13.47Q241.74 13.47 241.35 13.48L241.35 13.48L241.35 13.48Q240.95 13.50 240.67 13.50L240.67 13.50L240.67 13.50Q240.37 13.50 240.37 13.27L240.37 13.27L240.37 13.27Q240.37 13.15 240.55 13.11L240.55 13.11L240.55 13.11Q240.73 13.08 241.00 12.89L241.00 12.89L241.00 12.89Q241.26 12.71 241.40 12.21L241.40 12.21L241.40 12.21Q241.49 11.89 241.61 9.60L241.61 9.60L241.61 9.60Q241.74 7.32 241.74 6.45L241.74 6.45L241.74 6.45Q241.74 5.25 241.40 4.65L241.40 4.65L241.40 4.65Q241.07 4.06 240.31 3.98L240.31 3.98L240.31 3.98Q240.13 3.96 240.13 3.77ZM258.30 3.77L258.30 3.77L258.30 3.77Q258.30 3.68 258.40 3.60L258.40 3.60L258.40 3.60Q258.50 3.53 258.65 3.53L258.65 3.53L258.65 3.53Q258.73 3.53 258.93 3.54L258.93 3.54L258.93 3.54Q259.13 3.54 259.18 3.54L259.18 3.54L259.18 3.54Q259.39 3.54 259.57 3.53L259.57 3.53L259.57 3.53Q259.76 3.51 259.87 3.51L259.87 3.51L259.87 3.51Q259.99 3.51 260.16 3.59L260.16 3.59L260.16 3.59Q260.33 3.67 260.36 3.75L260.36 3.75L260.36 3.75Q260.39 3.79 260.51 3.94L260.51 3.94L260.51 3.94Q260.64 4.09 260.85 4.33L260.85 4.33L260.85 4.33Q261.06 4.56 261.23 4.79L261.23 4.79L261.23 4.79Q263.13 7.27 266.32 10.77L266.32 10.77L266.32 10.77Q266.41 10.86 266.52 10.99L266.52 10.99L266.52 10.99Q266.64 11.12 266.69 11.18L266.69 11.18L266.69 11.18Q266.74 11.24 266.80 11.30L266.80 11.30L266.80 11.30Q266.85 11.35 266.89 11.38L266.89 11.38L266.89 11.38Q266.92 11.40 266.95 11.40L266.95 11.40L266.95 11.40Q267.09 11.40 267.09 10.53L267.09 10.53L267.09 8.89L267.09 8.89Q267.09 7.95 267.08 7.31L267.08 7.31L267.08 7.31Q267.08 6.66 267.07 6.38L267.07 6.38L267.07 6.38Q267.06 6.09 267.06 6.02L267.06 6.02L267.06 5.92L267.06 5.92Q267.06 5.45 267.00 5.11L267.00 5.11L267.00 5.11Q266.94 4.77 266.85 4.59L266.85 4.59L266.85 4.59Q266.77 4.41 266.61 4.28L266.61 4.28L266.61 4.28Q266.45 4.16 266.34 4.12L266.34 4.12L266.34 4.12Q266.22 4.09 266.01 4.05L266.01 4.05L266.01 4.05Q265.80 4.00 265.72 3.98L265.72 3.98L265.72 3.98Q265.44 3.89 265.44 3.74L265.44 3.74L265.44 3.74Q265.44 3.53 265.71 3.53L265.71 3.53L265.71 3.53Q265.79 3.53 266.38 3.54L266.38 3.54L266.38 3.54Q266.97 3.54 267.04 3.54L267.04 3.54L267.04 3.54Q267.37 3.54 267.78 3.53L267.78 3.53L267.78 3.53Q268.20 3.51 268.30 3.51L268.30 3.51L268.30 3.51Q268.53 3.51 268.63 3.56L268.63 3.56L268.63 3.56Q268.72 3.61 268.72 3.75L268.72 3.75L268.72 3.75Q268.72 3.81 268.64 3.86L268.64 3.86L268.64 3.86Q268.56 3.91 268.48 3.94L268.48 3.94L268.48 3.94Q268.39 3.98 268.31 4.00L268.31 4.00L268.23 4.03L268.23 4.03Q267.76 4.28 267.76 5.61L267.76 5.61L267.76 6.15L267.76 6.15Q267.76 7.21 267.69 9.83L267.69 9.83L267.69 9.83Q267.61 12.46 267.61 13.08L267.61 13.08L267.61 13.36L267.61 13.36Q267.61 13.68 267.41 13.68L267.41 13.68L267.41 13.68Q267.29 13.68 267.19 13.58L267.19 13.58L267.19 13.58Q262.54 8.19 261.64 7.17L261.64 7.17L261.64 7.17Q260.74 6.16 260.64 6.16L260.64 6.16L260.64 6.16Q260.50 6.16 260.50 7.11L260.50 7.11L260.50 7.11Q260.50 8.44 260.44 9.97L260.44 9.97L260.44 9.97Q260.39 11.51 260.39 11.65L260.39 11.65L260.39 11.65Q260.39 12.28 260.60 12.61L260.60 12.61L260.60 12.61Q260.82 12.94 261.07 12.98L261.07 12.98L261.07 12.98Q261.32 13.02 261.54 13.07L261.54 13.07L261.54 13.07Q261.76 13.12 261.76 13.26L261.76 13.26L261.76 13.26Q261.76 13.41 261.71 13.45L261.71 13.45L261.71 13.45Q261.66 13.50 261.53 13.50L261.53 13.50L261.53 13.50Q261.44 13.50 261.09 13.48L261.09 13.48L261.09 13.48Q260.75 13.47 260.04 13.47L260.04 13.47L260.04 13.47Q259.91 13.47 259.52 13.48L259.52 13.48L259.52 13.48Q259.13 13.50 258.85 13.50L258.85 13.50L258.85 13.50Q258.54 13.50 258.54 13.27L258.54 13.27L258.54 13.27Q258.54 13.15 258.72 13.11L258.72 13.11L258.72 13.11Q258.90 13.08 259.17 12.89L259.17 12.89L259.17 12.89Q259.43 12.71 259.57 12.21L259.57 12.21L259.57 12.21Q259.66 11.89 259.78 9.60L259.78 9.60L259.78 9.60Q259.91 7.32 259.91 6.45L259.91 6.45L259.91 6.45Q259.91 5.25 259.57 4.65L259.57 4.65L259.57 4.65Q259.24 4.06 258.48 3.98L258.48 3.98L258.48 3.98Q258.30 3.96 258.30 3.77ZM276.47 3.65L276.47 3.65L276.47 3.65Q276.47 3.46 276.86 3.46L276.86 3.46L276.86 3.46Q276.92 3.46 277.05 3.47L277.05 3.47L277.05 3.47Q277.17 3.49 277.24 3.49L277.24 3.49L277.24 3.49Q277.28 3.49 278.56 3.52L278.56 3.52L278.56 3.52Q279.83 3.56 280.66 3.56L280.66 3.56L280.66 3.56Q280.95 3.56 282.11 3.53L282.11 3.53L282.11 3.53Q283.26 3.50 283.46 3.50L283.46 3.50L283.46 3.50Q283.72 3.50 283.72 3.82L283.72 3.82L283.72 3.82Q283.72 3.91 283.64 4.38L283.64 4.38L283.64 4.38Q283.56 4.84 283.56 5.25L283.56 5.25L283.56 5.25Q283.56 5.38 283.49 5.47L283.49 5.47L283.49 5.47Q283.42 5.56 283.33 5.56L283.33 5.56L283.33 5.56Q283.12 5.56 283.12 5.26L283.12 5.26L283.12 5.26Q283.12 4.89 282.88 4.58L282.88 4.58L282.88 4.58Q282.65 4.27 282.30 4.26L282.30 4.26L282.30 4.26Q281.04 4.16 280.36 4.16L280.36 4.16L280 4.16L280 4.16Q279.27 4.16 279.15 4.26L279.15 4.26L279.15 4.26Q279.03 4.37 279.01 5.01L279.01 5.01L279.01 5.01Q278.95 6.02 278.95 7.35L278.95 7.35L278.95 7.35Q278.95 8.05 279.22 8.06L279.22 8.06L279.57 8.06L280.15 8.06L280.59 8.06L280.59 8.06Q281.43 8.06 281.71 8.01L281.71 8.01L281.71 8.01Q281.99 7.95 282.21 7.80L282.21 7.80L282.21 7.80Q282.48 7.62 282.53 7.28L282.53 7.28L282.53 7.28Q282.58 7.04 282.73 7.04L282.73 7.04L282.73 7.04Q282.86 7.04 282.88 7.08L282.88 7.08L282.88 7.08Q282.91 7.13 282.91 7.27L282.91 7.27L282.91 7.27Q282.91 7.36 282.86 7.91L282.86 7.91L282.86 7.91Q282.80 8.46 282.80 8.74L282.80 8.74L282.80 8.74Q282.80 9.00 282.82 9.24L282.82 9.24L282.82 9.24Q282.84 9.48 282.84 9.59L282.84 9.59L282.84 9.59Q282.84 9.94 282.74 9.94L282.74 9.94L282.74 9.94Q282.53 9.94 282.44 9.60L282.44 9.60L282.44 9.60Q282.24 9.02 282.09 8.92L282.09 8.92L282.09 8.92Q281.79 8.72 280.74 8.72L280.74 8.72L280.74 8.72Q280.32 8.72 280.06 8.72L280.06 8.72L280.06 8.72Q279.80 8.72 279.73 8.71L279.73 8.71L279.73 8.71Q279.65 8.71 279.60 8.71L279.60 8.71L279.60 8.71Q279.55 8.71 279.51 8.71L279.51 8.71L279.51 8.71Q278.94 8.71 278.94 8.97L278.94 8.97L278.94 8.97Q278.94 9.38 278.92 9.99L278.92 9.99L278.92 9.99Q278.91 10.60 278.91 10.99L278.91 10.99L278.91 11.55L278.91 11.55Q278.91 12.56 279.24 12.66L279.24 12.66L279.24 12.66Q279.59 12.77 279.85 12.77L279.85 12.77L279.85 12.77Q280.90 12.77 281.69 12.67L281.69 12.67L281.69 12.67Q282.48 12.57 282.88 12.42L282.88 12.42L282.88 12.42Q283.28 12.28 283.54 12.10L283.54 12.10L283.54 12.10Q283.81 11.93 283.88 11.78L283.88 11.78L283.88 11.78Q283.96 11.63 284.04 11.54L284.04 11.54L284.04 11.54Q284.12 11.44 284.20 11.44L284.20 11.44L284.20 11.44Q284.37 11.44 284.37 11.68L284.37 11.68L284.37 11.68Q284.37 12.28 283.77 12.89L283.77 12.89L283.77 12.89Q283.16 13.51 282.72 13.51L282.72 13.51L282.72 13.51Q281.71 13.51 280.44 13.44L280.44 13.44L280.44 13.44Q279.17 13.37 278.87 13.37L278.87 13.37L278.87 13.37Q278.47 13.37 277.89 13.43L277.89 13.43L277.89 13.43Q277.30 13.50 276.96 13.50L276.96 13.50L276.96 13.50Q276.67 13.50 276.67 13.36L276.67 13.36L276.67 13.36Q276.67 13.23 276.67 13.19L276.67 13.19L276.67 13.19Q276.67 13.15 276.71 13.12L276.71 13.12L276.71 13.12Q276.75 13.09 276.80 13.08L276.80 13.08L276.80 13.08Q276.85 13.08 276.98 13.03L276.98 13.03L276.98 13.03Q277.12 12.99 277.27 12.92L277.27 12.92L277.27 12.92Q277.61 12.75 277.71 12.26L277.71 12.26L277.71 12.26Q277.82 11.77 277.82 10.21L277.82 10.21L277.82 8.47L277.82 8.47Q277.82 8.09 277.84 7.29L277.84 7.29L277.84 7.29Q277.86 6.50 277.86 6.05L277.86 6.05L277.86 6.05Q277.86 5.67 277.83 4.77L277.83 4.77L277.83 4.77Q277.82 4.37 277.48 4.14L277.48 4.14L277.48 4.14Q277.14 3.92 276.70 3.91L276.70 3.91L276.70 3.91Q276.47 3.91 276.47 3.65ZM291.93 3.71L291.93 3.71L291.93 3.71Q291.93 3.46 292.31 3.46L292.31 3.46L292.31 3.46Q292.36 3.46 292.49 3.47L292.49 3.47L292.49 3.47Q292.61 3.49 292.68 3.49L292.68 3.49L292.68 3.49Q292.82 3.49 293.21 3.51L293.21 3.51L293.21 3.51Q293.59 3.54 293.90 3.54L293.90 3.54L293.90 3.54Q294.34 3.54 294.83 3.51L294.83 3.51L294.83 3.51Q295.32 3.49 295.37 3.49L295.37 3.49L295.37 3.49Q295.61 3.49 295.61 3.63L295.61 3.63L295.61 3.63Q295.61 3.82 295.44 3.88L295.44 3.88L295.44 3.88Q295.27 3.95 295.07 3.97L295.07 3.97L295.07 3.97Q294.87 3.99 294.68 4.28L294.68 4.28L294.68 4.28Q294.49 4.56 294.46 5.14L294.46 5.14L294.46 5.14Q294.43 5.68 294.39 8.19L294.39 8.19L294.39 8.19Q294.35 10.70 294.35 10.99L294.35 10.99L294.35 11.55L294.35 11.55Q294.35 12.56 294.69 12.66L294.69 12.66L294.69 12.66Q295.04 12.77 295.29 12.77L295.29 12.77L295.29 12.77Q296.34 12.77 297.13 12.67L297.13 12.67L297.13 12.67Q297.92 12.57 298.32 12.42L298.32 12.42L298.32 12.42Q298.72 12.28 298.98 12.10L298.98 12.10L298.98 12.10Q299.25 11.93 299.33 11.78L299.33 11.78L299.33 11.78Q299.40 11.63 299.48 11.54L299.48 11.54L299.48 11.54Q299.56 11.44 299.64 11.44L299.64 11.44L299.64 11.44Q299.81 11.44 299.81 11.68L299.81 11.68L299.81 11.68Q299.81 12.28 299.21 12.89L299.21 12.89L299.21 12.89Q298.61 13.51 298.16 13.51L298.16 13.51L298.16 13.51Q297.15 13.51 295.88 13.44L295.88 13.44L295.88 13.44Q294.62 13.37 294.31 13.37L294.31 13.37L294.31 13.37Q293.92 13.37 293.41 13.43L293.41 13.43L293.41 13.43Q292.89 13.48 292.56 13.48L292.56 13.48L292.56 13.48Q292.15 13.48 292.15 13.31L292.15 13.31L292.15 13.31Q292.15 13.22 292.23 13.15L292.23 13.15L292.23 13.15Q292.31 13.09 292.38 13.09L292.38 13.09L292.38 13.09Q292.59 13.09 292.78 12.95L292.78 12.95L292.78 12.95Q293.03 12.75 293.15 12.23L293.15 12.23L293.15 12.23Q293.26 11.70 293.26 10.21L293.26 10.21L293.26 8.47L293.26 8.47Q293.26 8.09 293.28 7.29L293.28 7.29L293.28 7.29Q293.30 6.50 293.30 6.05L293.30 6.05L293.30 6.05Q293.30 5.67 293.27 4.77L293.27 4.77L293.27 4.77Q293.26 4.37 292.92 4.14L292.92 4.14L292.92 4.14Q292.59 3.92 292.14 3.91L292.14 3.91L292.14 3.91Q292.00 3.91 291.96 3.86L291.96 3.86L291.96 3.86Q291.93 3.81 291.93 3.71Z"></path></g></svg>