<svg data-v-fde0c5aa="" xmlns="http://www.w3.org/2000/svg" viewBox="0 0 300 300" class="font"><!----><defs data-v-fde0c5aa=""><!----></defs><rect data-v-fde0c5aa="" fill="#E02D1D" x="0" y="0" width="300px" height="300px" class="logo-background-square"></rect><defs data-v-fde0c5aa=""><!----></defs><g data-v-fde0c5aa="" id="4b5bf6e0-b042-485d-bcb9-4b5ba2e54c9e" fill="#FFAD9D" transform="matrix(2.111324438035037,0,0,2.111324438035037,37.40307090094659,129.71017237197006)"><path d="M1.54 13.09L1.54 13.09Q1.40 13.09 1.32 13.00L1.32 13.00L1.32 13.00Q1.23 12.91 1.23 12.77L1.23 12.77L1.23 3.63L1.23 3.63Q1.23 3.47 1.32 3.38L1.32 3.38L1.32 3.38Q1.40 3.29 1.54 3.29L1.54 3.29L4.96 3.29L4.96 3.29Q6.55 3.29 7.46 4.04L7.46 4.04L7.46 4.04Q8.36 4.79 8.36 6.22L8.36 6.22L8.36 6.22Q8.36 7.28 7.83 7.97L7.83 7.97L7.83 7.97Q7.29 8.65 6.34 8.92L6.34 8.92L8.50 12.66L8.50 12.66Q8.54 12.74 8.54 12.81L8.54 12.81L8.54 12.81Q8.54 12.92 8.46 13.01L8.46 13.01L8.46 13.01Q8.37 13.09 8.26 13.09L8.26 13.09L7.64 13.09L7.64 13.09Q7.43 13.09 7.32 12.99L7.32 12.99L7.32 12.99Q7.20 12.89 7.10 12.71L7.10 12.71L5.04 9.13L2.55 9.13L2.55 12.77L2.55 12.77Q2.55 12.91 2.45 13.00L2.45 13.00L2.45 13.00Q2.35 13.09 2.21 13.09L2.21 13.09L1.54 13.09ZM2.55 7.98L4.90 7.98L4.90 7.98Q7.01 7.98 7.01 6.20L7.01 6.20L7.01 6.20Q7.01 4.42 4.90 4.42L4.90 4.42L2.55 4.42L2.55 7.98ZM13.16 13.23L13.16 13.23Q11.62 13.23 10.79 12.36L10.79 12.36L10.79 12.36Q9.95 11.49 9.90 10.05L9.90 10.05L9.88 9.45L9.90 8.85L9.90 8.85Q9.95 7.41 10.80 6.54L10.80 6.54L10.80 6.54Q11.65 5.67 13.16 5.67L13.16 5.67L13.16 5.67Q14.67 5.67 15.52 6.54L15.52 6.54L15.52 6.54Q16.37 7.41 16.42 8.85L16.42 8.85L16.42 8.85Q16.45 9.16 16.45 9.45L16.45 9.45L16.45 9.45Q16.45 9.74 16.42 10.05L16.42 10.05L16.42 10.05Q16.37 11.49 15.53 12.36L15.53 12.36L15.53 12.36Q14.70 13.23 13.16 13.23L13.16 13.23ZM13.16 12.18L13.16 12.18Q14.06 12.18 14.58 11.61L14.58 11.61L14.58 11.61Q15.11 11.05 15.15 9.98L15.15 9.98L15.15 9.98Q15.16 9.84 15.16 9.45L15.16 9.45L15.16 9.45Q15.16 9.06 15.15 8.92L15.15 8.92L15.15 8.92Q15.11 7.85 14.58 7.29L14.58 7.29L14.58 7.29Q14.06 6.72 13.16 6.72L13.16 6.72L13.16 6.72Q12.26 6.72 11.74 7.29L11.74 7.29L11.74 7.29Q11.21 7.85 11.17 8.92L11.17 8.92L11.16 9.45L11.17 9.98L11.17 9.98Q11.21 11.05 11.74 11.61L11.74 11.61L11.74 11.61Q12.26 12.18 13.16 12.18L13.16 12.18ZM17.88 13.09L17.88 13.09Q17.75 13.09 17.67 13.01L17.67 13.01L17.67 13.01Q17.58 12.92 17.58 12.80L17.58 12.80L17.58 12.80Q17.58 12.67 17.68 12.53L17.68 12.53L20.12 9.37L17.84 6.36L17.84 6.36Q17.72 6.20 17.72 6.10L17.72 6.10L17.72 6.10Q17.72 5.98 17.82 5.89L17.82 5.89L17.82 5.89Q17.91 5.81 18.02 5.81L18.02 5.81L18.69 5.81L18.69 5.81Q18.90 5.81 19.05 6.03L19.05 6.03L20.94 8.48L22.83 6.03L22.83 6.03Q22.92 5.92 23.00 5.87L23.00 5.87L23.00 5.87Q23.07 5.81 23.20 5.81L23.20 5.81L23.84 5.81L23.84 5.81Q23.95 5.81 24.04 5.89L24.04 5.89L24.04 5.89Q24.12 5.98 24.12 6.09L24.12 6.09L24.12 6.09Q24.12 6.23 24.02 6.36L24.02 6.36L21.71 9.39L24.15 12.53L24.15 12.53Q24.25 12.67 24.25 12.80L24.25 12.80L24.25 12.80Q24.25 12.92 24.16 13.01L24.16 13.01L24.16 13.01Q24.08 13.09 23.95 13.09L23.95 13.09L23.27 13.09L23.27 13.09Q23.06 13.09 22.90 12.88L22.90 12.88L20.90 10.29L18.90 12.88L18.90 12.88Q18.82 12.98 18.74 13.03L18.74 13.03L18.74 13.03Q18.66 13.09 18.54 13.09L18.54 13.09L17.88 13.09ZM26.05 13.09L26.05 13.09Q25.91 13.09 25.82 13.00L25.82 13.00L25.82 13.00Q25.73 12.91 25.73 12.77L25.73 12.77L25.73 6.13L25.73 6.13Q25.73 5.99 25.82 5.90L25.82 5.90L25.82 5.90Q25.91 5.81 26.05 5.81L26.05 5.81L26.64 5.81L26.64 5.81Q26.78 5.81 26.87 5.90L26.87 5.90L26.87 5.90Q26.95 5.99 26.95 6.13L26.95 6.13L26.95 6.61L26.95 6.61Q27.71 5.67 28.99 5.67L28.99 5.67L28.99 5.67Q30.53 5.67 31.18 6.96L31.18 6.96L31.18 6.96Q31.51 6.37 32.14 6.02L32.14 6.02L32.14 6.02Q32.76 5.67 33.53 5.67L33.53 5.67L33.53 5.67Q34.68 5.67 35.41 6.45L35.41 6.45L35.41 6.45Q36.13 7.24 36.13 8.72L36.13 8.72L36.13 12.77L36.13 12.77Q36.13 12.91 36.04 13.00L36.04 13.00L36.04 13.00Q35.95 13.09 35.81 13.09L35.81 13.09L35.21 13.09L35.21 13.09Q35.07 13.09 34.98 13.00L34.98 13.00L34.98 13.00Q34.89 12.91 34.89 12.77L34.89 12.77L34.89 8.85L34.89 8.85Q34.89 7.73 34.43 7.25L34.43 7.25L34.43 7.25Q33.96 6.76 33.21 6.76L33.21 6.76L33.21 6.76Q32.54 6.76 32.05 7.26L32.05 7.26L32.05 7.26Q31.57 7.76 31.57 8.85L31.57 8.85L31.57 12.77L31.57 12.77Q31.57 12.91 31.48 13.00L31.48 13.00L31.48 13.00Q31.39 13.09 31.25 13.09L31.25 13.09L30.63 13.09L30.63 13.09Q30.49 13.09 30.40 13.00L30.40 13.00L30.40 13.00Q30.31 12.91 30.31 12.77L30.31 12.77L30.31 8.85L30.31 8.85Q30.31 7.74 29.83 7.25L29.83 7.25L29.83 7.25Q29.34 6.76 28.63 6.76L28.63 6.76L28.63 6.76Q27.96 6.76 27.48 7.25L27.48 7.25L27.48 7.25Q26.99 7.74 26.99 8.83L26.99 8.83L26.99 12.77L26.99 12.77Q26.99 12.91 26.90 13.00L26.90 13.00L26.90 13.00Q26.81 13.09 26.67 13.09L26.67 13.09L26.05 13.09ZM40.18 13.23L40.18 13.23Q39.49 13.23 38.91 12.95L38.91 12.95L38.91 12.95Q38.33 12.67 37.99 12.19L37.99 12.19L37.99 12.19Q37.65 11.70 37.65 11.12L37.65 11.12L37.65 11.12Q37.65 10.19 38.40 9.60L38.40 9.60L38.40 9.60Q39.16 9.02 40.46 8.82L40.46 8.82L42.56 8.53L42.56 8.12L42.56 8.12Q42.56 6.68 40.89 6.68L40.89 6.68L40.89 6.68Q40.25 6.68 39.86 6.94L39.86 6.94L39.86 6.94Q39.47 7.20 39.28 7.55L39.28 7.55L39.28 7.55Q39.23 7.69 39.17 7.73L39.17 7.73L39.17 7.73Q39.10 7.78 38.99 7.78L38.99 7.78L38.44 7.78L38.44 7.78Q38.32 7.78 38.23 7.69L38.23 7.69L38.23 7.69Q38.14 7.60 38.14 7.48L38.14 7.48L38.14 7.48Q38.14 7.15 38.44 6.73L38.44 6.73L38.44 6.73Q38.74 6.30 39.37 5.98L39.37 5.98L39.37 5.98Q40.00 5.67 40.91 5.67L40.91 5.67L40.91 5.67Q42.48 5.67 43.16 6.40L43.16 6.40L43.16 6.40Q43.83 7.13 43.83 8.22L43.83 8.22L43.83 12.77L43.83 12.77Q43.83 12.91 43.74 13.00L43.74 13.00L43.74 13.00Q43.65 13.09 43.51 13.09L43.51 13.09L42.90 13.09L42.90 13.09Q42.76 13.09 42.67 13.00L42.67 13.00L42.67 13.00Q42.59 12.91 42.59 12.77L42.59 12.77L42.59 12.15L42.59 12.15Q42.28 12.61 41.69 12.92L41.69 12.92L41.69 12.92Q41.10 13.23 40.18 13.23L40.18 13.23ZM40.46 12.21L40.46 12.21Q41.38 12.21 41.97 11.61L41.97 11.61L41.97 11.61Q42.56 11.00 42.56 9.86L42.56 9.86L42.56 9.46L40.92 9.70L40.92 9.70Q39.91 9.84 39.40 10.18L39.40 10.18L39.40 10.18Q38.88 10.51 38.88 11.02L38.88 11.02L38.88 11.02Q38.88 11.59 39.35 11.90L39.35 11.90L39.35 11.90Q39.82 12.21 40.46 12.21L40.46 12.21ZM46.19 13.09L46.19 13.09Q46.05 13.09 45.96 13.00L45.96 13.00L45.96 13.00Q45.86 12.91 45.86 12.77L45.86 12.77L45.86 6.13L45.86 6.13Q45.86 5.99 45.96 5.90L45.96 5.90L45.96 5.90Q46.05 5.81 46.19 5.81L46.19 5.81L46.79 5.81L46.79 5.81Q46.94 5.81 47.03 5.89L47.03 5.89L47.03 5.89Q47.11 5.98 47.11 6.13L47.11 6.13L47.11 6.75L47.11 6.75Q47.53 6.23 48.08 5.95L48.08 5.95L48.08 5.95Q48.64 5.67 49.46 5.67L49.46 5.67L49.46 5.67Q50.81 5.67 51.55 6.53L51.55 6.53L51.55 6.53Q52.29 7.39 52.29 8.81L52.29 8.81L52.29 12.77L52.29 12.77Q52.29 12.91 52.20 13.00L52.20 13.00L52.20 13.00Q52.11 13.09 51.97 13.09L51.97 13.09L51.32 13.09L51.32 13.09Q51.18 13.09 51.09 13.00L51.09 13.00L51.09 13.00Q51.00 12.91 51.00 12.77L51.00 12.77L51.00 8.89L51.00 8.89Q51.00 7.88 50.51 7.32L50.51 7.32L50.51 7.32Q50.02 6.76 49.11 6.76L49.11 6.76L49.11 6.76Q48.22 6.76 47.68 7.33L47.68 7.33L47.68 7.33Q47.15 7.90 47.15 8.89L47.15 8.89L47.15 12.77L47.15 12.77Q47.15 12.91 47.06 13.00L47.06 13.00L47.06 13.00Q46.97 13.09 46.83 13.09L46.83 13.09L46.19 13.09ZM61.49 13.23L61.49 13.23Q59.67 13.23 58.66 12.22L58.66 12.22L58.66 12.22Q57.65 11.21 57.58 9.49L57.58 9.49L57.58 9.49Q57.57 9.07 57.57 8.18L57.57 8.18L57.57 8.18Q57.57 7.27 57.58 6.86L57.58 6.86L57.58 6.86Q57.64 5.15 58.65 4.15L58.65 4.15L58.65 4.15Q59.67 3.15 61.49 3.15L61.49 3.15L61.49 3.15Q62.72 3.15 63.57 3.60L63.57 3.60L63.57 3.60Q64.43 4.05 64.86 4.67L64.86 4.67L64.86 4.67Q65.30 5.29 65.32 5.82L65.32 5.82L65.32 5.85L65.32 5.85Q65.32 5.96 65.23 6.04L65.23 6.04L65.23 6.04Q65.14 6.12 65.03 6.12L65.03 6.12L64.25 6.12L64.25 6.12Q64.12 6.12 64.06 6.06L64.06 6.06L64.06 6.06Q63.99 6.01 63.94 5.85L63.94 5.85L63.94 5.85Q63.71 5.19 63.11 4.75L63.11 4.75L63.11 4.75Q62.51 4.30 61.49 4.30L61.49 4.30L61.49 4.30Q60.31 4.30 59.64 4.94L59.64 4.94L59.64 4.94Q58.97 5.59 58.93 6.93L58.93 6.93L58.93 6.93Q58.91 7.34 58.91 8.18L58.91 8.18L58.91 8.18Q58.91 9.00 58.93 9.42L58.93 9.42L58.93 9.42Q58.97 10.78 59.64 11.42L59.64 11.42L59.64 11.42Q60.31 12.07 61.49 12.07L61.49 12.07L61.49 12.07Q62.68 12.07 63.39 11.42L63.39 11.42L63.39 11.42Q64.11 10.77 64.11 9.46L64.11 9.46L64.11 8.86L61.96 8.86L61.96 8.86Q61.82 8.86 61.73 8.76L61.73 8.76L61.73 8.76Q61.64 8.67 61.64 8.53L61.64 8.53L61.64 8.11L61.64 8.11Q61.64 7.97 61.73 7.87L61.73 7.87L61.73 7.87Q61.82 7.77 61.96 7.77L61.96 7.77L65.10 7.77L65.10 7.77Q65.25 7.77 65.35 7.86L65.35 7.86L65.35 7.86Q65.44 7.95 65.44 8.11L65.44 8.11L65.44 9.44L65.44 9.44Q65.44 10.57 64.97 11.43L64.97 11.43L64.97 11.43Q64.50 12.29 63.60 12.76L63.60 12.76L63.60 12.76Q62.71 13.23 61.49 13.23L61.49 13.23ZM69.29 13.23L69.29 13.23Q68.60 13.23 68.02 12.95L68.02 12.95L68.02 12.95Q67.44 12.67 67.10 12.19L67.10 12.19L67.10 12.19Q66.75 11.70 66.75 11.12L66.75 11.12L66.75 11.12Q66.75 10.19 67.51 9.60L67.51 9.60L67.51 9.60Q68.26 9.02 69.57 8.82L69.57 8.82L71.67 8.53L71.67 8.12L71.67 8.12Q71.67 6.68 70.00 6.68L70.00 6.68L70.00 6.68Q69.36 6.68 68.96 6.94L68.96 6.94L68.96 6.94Q68.57 7.20 68.39 7.55L68.39 7.55L68.39 7.55Q68.33 7.69 68.27 7.73L68.27 7.73L68.27 7.73Q68.21 7.78 68.10 7.78L68.10 7.78L67.55 7.78L67.55 7.78Q67.42 7.78 67.33 7.69L67.33 7.69L67.33 7.69Q67.24 7.60 67.24 7.48L67.24 7.48L67.24 7.48Q67.24 7.15 67.54 6.73L67.54 6.73L67.54 6.73Q67.84 6.30 68.47 5.98L68.47 5.98L68.47 5.98Q69.10 5.67 70.01 5.67L70.01 5.67L70.01 5.67Q71.58 5.67 72.26 6.40L72.26 6.40L72.26 6.40Q72.94 7.13 72.94 8.22L72.94 8.22L72.94 12.77L72.94 12.77Q72.94 12.91 72.85 13.00L72.85 13.00L72.85 13.00Q72.76 13.09 72.62 13.09L72.62 13.09L72.00 13.09L72.00 13.09Q71.86 13.09 71.78 13.00L71.78 13.00L71.78 13.00Q71.69 12.91 71.69 12.77L71.69 12.77L71.69 12.15L71.69 12.15Q71.39 12.61 70.80 12.92L70.80 12.92L70.80 12.92Q70.21 13.23 69.29 13.23L69.29 13.23ZM69.57 12.21L69.57 12.21Q70.49 12.21 71.08 11.61L71.08 11.61L71.08 11.61Q71.67 11.00 71.67 9.86L71.67 9.86L71.67 9.46L70.03 9.70L70.03 9.70Q69.02 9.84 68.50 10.18L68.50 10.18L68.50 10.18Q67.98 10.51 67.98 11.02L67.98 11.02L67.98 11.02Q67.98 11.59 68.45 11.90L68.45 11.90L68.45 11.90Q68.92 12.21 69.57 12.21L69.57 12.21ZM75.29 13.09L75.29 13.09Q75.15 13.09 75.06 13.00L75.06 13.00L75.06 13.00Q74.97 12.91 74.97 12.77L74.97 12.77L74.97 6.13L74.97 6.13Q74.97 5.99 75.06 5.90L75.06 5.90L75.06 5.90Q75.15 5.81 75.29 5.81L75.29 5.81L75.88 5.81L75.88 5.81Q76.02 5.81 76.10 5.90L76.10 5.90L76.10 5.90Q76.19 5.99 76.19 6.13L76.19 6.13L76.19 6.61L76.19 6.61Q76.94 5.67 78.23 5.67L78.23 5.67L78.23 5.67Q79.77 5.67 80.42 6.96L80.42 6.96L80.42 6.96Q80.75 6.37 81.38 6.02L81.38 6.02L81.38 6.02Q82.00 5.67 82.77 5.67L82.77 5.67L82.77 5.67Q83.92 5.67 84.64 6.45L84.64 6.45L84.64 6.45Q85.37 7.24 85.37 8.72L85.37 8.72L85.37 12.77L85.37 12.77Q85.37 12.91 85.28 13.00L85.28 13.00L85.28 13.00Q85.19 13.09 85.05 13.09L85.05 13.09L84.45 13.09L84.45 13.09Q84.31 13.09 84.22 13.00L84.22 13.00L84.22 13.00Q84.13 12.91 84.13 12.77L84.13 12.77L84.13 8.85L84.13 8.85Q84.13 7.73 83.66 7.25L83.66 7.25L83.66 7.25Q83.20 6.76 82.45 6.76L82.45 6.76L82.45 6.76Q81.77 6.76 81.29 7.26L81.29 7.26L81.29 7.26Q80.81 7.76 80.81 8.85L80.81 8.85L80.81 12.77L80.81 12.77Q80.81 12.91 80.72 13.00L80.72 13.00L80.72 13.00Q80.63 13.09 80.49 13.09L80.49 13.09L79.87 13.09L79.87 13.09Q79.73 13.09 79.64 13.00L79.64 13.00L79.64 13.00Q79.55 12.91 79.55 12.77L79.55 12.77L79.55 8.85L79.55 8.85Q79.55 7.74 79.07 7.25L79.07 7.25L79.07 7.25Q78.58 6.76 77.87 6.76L77.87 6.76L77.87 6.76Q77.20 6.76 76.71 7.25L76.71 7.25L76.71 7.25Q76.23 7.74 76.23 8.83L76.23 8.83L76.23 12.77L76.23 12.77Q76.23 12.91 76.14 13.00L76.14 13.00L76.14 13.00Q76.05 13.09 75.91 13.09L75.91 13.09L75.29 13.09ZM87.61 4.44L87.61 4.44Q87.47 4.44 87.38 4.35L87.38 4.35L87.38 4.35Q87.29 4.26 87.29 4.12L87.29 4.12L87.29 3.39L87.29 3.39Q87.29 3.25 87.38 3.15L87.38 3.15L87.38 3.15Q87.47 3.05 87.61 3.05L87.61 3.05L88.44 3.05L88.44 3.05Q88.58 3.05 88.68 3.15L88.68 3.15L88.68 3.15Q88.77 3.25 88.77 3.39L88.77 3.39L88.77 4.12L88.77 4.12Q88.77 4.26 88.68 4.35L88.68 4.35L88.68 4.35Q88.58 4.44 88.44 4.44L88.44 4.44L87.61 4.44ZM87.72 13.09L87.72 13.09Q87.58 13.09 87.49 13.00L87.49 13.00L87.49 13.00Q87.40 12.91 87.40 12.77L87.40 12.77L87.40 6.13L87.40 6.13Q87.40 5.99 87.49 5.90L87.49 5.90L87.49 5.90Q87.58 5.81 87.72 5.81L87.72 5.81L88.34 5.81L88.34 5.81Q88.48 5.81 88.57 5.90L88.57 5.90L88.57 5.90Q88.66 5.99 88.66 6.13L88.66 6.13L88.66 12.77L88.66 12.77Q88.66 12.91 88.57 13.00L88.57 13.00L88.57 13.00Q88.48 13.09 88.34 13.09L88.34 13.09L87.72 13.09ZM91.08 13.09L91.08 13.09Q90.94 13.09 90.85 13.00L90.85 13.00L90.85 13.00Q90.76 12.91 90.76 12.77L90.76 12.77L90.76 6.13L90.76 6.13Q90.76 5.99 90.85 5.90L90.85 5.90L90.85 5.90Q90.94 5.81 91.08 5.81L91.08 5.81L91.69 5.81L91.69 5.81Q91.84 5.81 91.92 5.89L91.92 5.89L91.92 5.89Q92.01 5.98 92.01 6.13L92.01 6.13L92.01 6.75L92.01 6.75Q92.43 6.23 92.98 5.95L92.98 5.95L92.98 5.95Q93.53 5.67 94.36 5.67L94.36 5.67L94.36 5.67Q95.70 5.67 96.45 6.53L96.45 6.53L96.45 6.53Q97.19 7.39 97.19 8.81L97.19 8.81L97.19 12.77L97.19 12.77Q97.19 12.91 97.10 13.00L97.10 13.00L97.10 13.00Q97.01 13.09 96.87 13.09L96.87 13.09L96.22 13.09L96.22 13.09Q96.08 13.09 95.99 13.00L95.99 13.00L95.99 13.00Q95.90 12.91 95.90 12.77L95.90 12.77L95.90 8.89L95.90 8.89Q95.90 7.88 95.41 7.32L95.41 7.32L95.41 7.32Q94.92 6.76 94.01 6.76L94.01 6.76L94.01 6.76Q93.11 6.76 92.58 7.33L92.58 7.33L92.58 7.33Q92.05 7.90 92.05 8.89L92.05 8.89L92.05 12.77L92.05 12.77Q92.05 12.91 91.96 13.00L91.96 13.00L91.96 13.00Q91.87 13.09 91.73 13.09L91.73 13.09L91.08 13.09ZM102.17 16.17L102.17 16.17Q101.01 16.17 100.31 15.78L100.31 15.78L100.31 15.78Q99.61 15.39 99.32 14.88L99.32 14.88L99.32 14.88Q99.04 14.38 99.04 14.01L99.04 14.01L99.04 14.01Q99.04 13.89 99.13 13.80L99.13 13.80L99.13 13.80Q99.23 13.71 99.36 13.71L99.36 13.71L99.97 13.71L99.97 13.71Q100.10 13.71 100.18 13.77L100.18 13.77L100.18 13.77Q100.27 13.83 100.32 14L100.32 14L100.32 14Q100.72 15.12 102.10 15.12L102.10 15.12L102.10 15.12Q103.15 15.12 103.66 14.67L103.66 14.67L103.66 14.67Q104.16 14.22 104.16 13.09L104.16 13.09L104.16 12.12L104.16 12.12Q103.35 13.16 101.89 13.16L101.89 13.16L101.89 13.16Q100.41 13.16 99.67 12.21L99.67 12.21L99.67 12.21Q98.94 11.26 98.90 9.80L98.90 9.80L98.88 9.41L98.90 9.03L98.90 9.03Q98.94 7.59 99.67 6.63L99.67 6.63L99.67 6.63Q100.41 5.67 101.89 5.67L101.89 5.67L101.89 5.67Q103.36 5.67 104.19 6.75L104.19 6.75L104.19 6.15L104.19 6.15Q104.19 6.01 104.28 5.91L104.28 5.91L104.28 5.91Q104.37 5.81 104.51 5.81L104.51 5.81L105.11 5.81L105.11 5.81Q105.25 5.81 105.34 5.91L105.34 5.91L105.34 5.91Q105.43 6.01 105.43 6.15L105.43 6.15L105.43 12.94L105.43 12.94Q105.43 16.17 102.17 16.17L102.17 16.17ZM102.14 12.07L102.14 12.07Q103.12 12.07 103.62 11.43L103.62 11.43L103.62 11.43Q104.12 10.79 104.16 9.90L104.16 9.90L104.16 9.90Q104.17 9.77 104.17 9.41L104.17 9.41L104.17 9.41Q104.17 9.06 104.16 8.93L104.16 8.93L104.16 8.93Q104.12 8.04 103.62 7.40L103.62 7.40L103.62 7.40Q103.12 6.76 102.14 6.76L102.14 6.76L102.14 6.76Q101.14 6.76 100.68 7.40L100.68 7.40L100.68 7.40Q100.23 8.04 100.18 9.04L100.18 9.04L100.17 9.41L100.18 9.79L100.18 9.79Q100.23 10.79 100.68 11.43L100.68 11.43L100.68 11.43Q101.14 12.07 102.14 12.07L102.14 12.07Z"></path></g><!----><!----></svg>